<?xml version="1.0" encoding="utf-8"?>
<!DOCTYPE svg PUBLIC "-//W3C//DTD SVG 1.0//EN" "http://www.w3.org/TR/2001/REC-SVG-20010904/DTD/svg10.dtd">
<svg version="1.0" xmlns="http://www.w3.org/2000/svg" width="512px" height="512px" viewBox="0 0 512 512" preserveAspectRatio="xMidYMid meet">
 <g fill="#380708">
  <path d="M 340.5 264.3 c 1.2 -9.4 0.6 -14.1 -3 -23.7 -6.9 -18.5 -7.5 -19.4 -17.7 -24.1 -8.4 -3.8 -9.2 -4.1 -20.8 -5.9 -4.7 -0.8 -11.9 -2.2 -16 -3.1 -4.1 -0.9 -11 -2.4 -15.2 -3.3 -7.7 -1.7 -7.8 -1.7 -7.8 -4.8 0 -2.5 0.5 -3.3 2.3 -3.8 1.4 -0.3 2.9 -2 4.1 -4.6 1.1 -2.5 2.8 -4.5 4.3 -5.1 1.4 -0.5 4.2 -2.6 6.4 -4.6 l 3.8 -3.6 -4.2 -1.9 c -6 -2.7 -7.7 -4.6 -7.7 -8.6 0 -2.6 -0.3 -3.2 -1.3 -2.5 -0.6 0.6 -2.7 1.5 -4.4 2.1 -1.8 0.6 -6.3 3 -10 5.4 -3.8 2.4 -8.9 5.2 -11.5 6.2 -2.6 1 -5 2.2 -5.3 2.7 -0.4 0.5 -2.6 0.9 -5.1 0.9 -4.4 0 -4.4 0 -4.4 -3.5 0 -2.9 0.6 -3.9 3.7 -6.1 2.1 -1.4 5.4 -3.6 7.3 -4.9 6.5 -4.4 24.2 -13.7 28.8 -15 2.5 -0.8 6.8 -1.7 9.6 -2 7.5 -1 23.8 1.1 30.4 3.9 3.7 1.5 9.6 2.8 16.6 3.5 6 0.6 11.5 1.6 12.3 2.3 0.9 0.7 1.3 2.5 1.1 4.7 l -0.3 3.6 -6 0.5 c -6.4 0.5 -10.8 2.4 -8.9 3.7 0.6 0.5 1.5 2.6 2 4.8 0.9 3.6 1.3 4 4.3 4.3 3 0.3 3.6 0.9 5.8 6.2 1.7 3.8 3.4 6.2 5 6.9 2.4 1.1 2.5 1.6 2.1 6.9 l -0.4 5.7 3.7 -0.3 c 3 -0.3 4 0 4.8 1.7 0.9 1.6 2.1 2.1 5.5 2.1 5.5 0 7.5 1.7 11.5 9.5 2.7 5.4 3.1 6.9 2.8 13.7 -0.1 5.1 0.2 8.1 1.1 8.9 0.6 0.7 1.2 3.7 1.2 6.6 l 0 5.3 -4.9 0 c -3.1 0 -5.3 -0.5 -6.1 -1.5 -0.7 -0.8 -1.9 -1.5 -2.6 -1.5 -0.9 0 -1.4 -1.2 -1.4 -3.2 0 -2.5 -0.3 -2.9 -1 -1.8 -0.5 0.8 -1 3.8 -1 6.7 0 9.5 -4.5 16.3 -10.8 16.3 l -3.5 0 0.8 -5.7 z "/>
 </g>
 <g fill="#490c09">
  <path d="M 286.9 447.8 c 0 -1.3 -0.2 -12.7 -0.3 -25.4 l -0.3 -23.1 -3 -5 c -1.7 -2.7 -3.5 -6.4 -4.1 -8.3 -0.6 -1.9 -3.2 -10.2 -5.8 -18.5 -5.3 -17 -7.3 -24.7 -7.4 -28.8 l 0 -2.8 6.3 0.3 c 5.8 0.3 6.2 0.5 6.5 2.8 0.3 2.4 1.3 5.3 6.7 19.5 1.3 3.3 3.1 8.7 4.1 12 0.9 3.3 3.1 8.9 4.7 12.5 3 6.4 3.1 6.9 3.5 25.2 0.5 20.2 1.1 23 5 20.9 1.1 -0.6 4.3 -1.1 7.1 -1.1 l 5.1 0 0 3.4 c 0 4.5 -4.1 7.6 -9.9 7.6 -4.8 0 -5.5 1.5 -1.1 2.4 2.7 0.5 3 0.9 3 4.6 l 0 4 -10 0 c -9.7 0 -10 -0.1 -10.1 -2.2 z "/>
  <path d="M 156 359 c 0 -6 1.6 -9.5 9.6 -20.7 6 -8.3 23.2 -24.5 28 -26.3 2.4 -0.9 2.4 -1.1 0.9 -4 -0.9 -1.7 -1.5 -5.1 -1.4 -7.8 0.1 -2.6 -0.3 -5.7 -0.9 -6.9 -1.9 -3.5 -1.5 -15.8 0.7 -20.1 1 -2 2.2 -5.2 2.6 -6.9 0.6 -2.9 1 -3.3 4.1 -3.3 l 3.4 0 -0.1 4.8 c -0.1 2.6 -0.4 7.2 -0.8 10.2 -0.4 3.3 -0.2 7.7 0.6 11 0.7 3 1.2 7.6 1.3 10.2 0 7 0.6 7.8 5.6 7.8 l 4.4 0 0 3.9 c 0 2.2 -0.6 4.4 -1.5 5.1 -0.8 0.7 -1.5 1.8 -1.5 2.5 0 1.4 7.5 8.5 9 8.5 0.6 0 1 1.6 1 3.5 0 3.5 0 3.5 -4.5 3.5 -5.6 0 -9.2 -1.8 -12.3 -5.9 l -2.3 -3.2 -3.9 3.1 c -10.4 8.2 -28 27.5 -28 30.8 0 0.6 -0.8 1.2 -1.8 1.2 -1.1 0 -2.7 0.9 -3.7 2 -1.1 1.2 -3.1 2 -5.2 2 l -3.3 0 0 -5 z "/>
  <path d="M 281.7 345.3 c -0.4 -0.3 -0.7 -2.3 -0.7 -4.4 l 0 -3.8 5.6 -0.7 c 14.2 -1.7 32.5 -16.2 40.7 -32.1 3.3 -6.3 7.6 -19.9 8.6 -27.5 1.3 -9 2.3 -11.5 6.1 -14.6 l 2.9 -2.2 -1 3.2 c -1.3 4.5 -1.3 4.5 2.1 1.3 3.5 -3.3 5.4 -8.6 4.6 -12.2 -0.4 -1.4 -0.2 -4 0.4 -5.8 1.9 -5.7 9.8 -5.1 8.3 0.6 -0.4 1.2 0 1.9 1 1.9 0.8 0 2 0.7 2.7 1.5 2 2.4 5 1.9 5 -0.8 0 -1.3 -0.6 -2.9 -1.2 -3.5 -0.8 -0.8 -1.4 -4.6 -1.5 -10 -0.1 -7.7 -0.5 -9.3 -3.3 -14.5 -3.8 -7 -6.2 -8.5 -9.5 -6.3 -3.2 2.1 -3 2.1 -5.4 -1.8 -2.5 -3.9 -5.7 -3.9 -6.7 0 -0.8 3 -1.7 3 -3.6 0.2 -1 -1.5 -2.4 -2.1 -4.6 -2 -4.5 0.1 -4.1 -2.3 0.7 -4.7 5.6 -2.9 6.9 -7.3 2.7 -9.2 -1.5 -0.7 -3.3 -3.3 -4.9 -6.9 -2.3 -5.3 -2.8 -5.9 -5.8 -6.2 -3.1 -0.3 -3.5 -0.7 -4.3 -4.5 -0.5 -2.4 -1.3 -4.3 -1.7 -4.3 -0.5 0 -0.9 -1.6 -0.9 -3.6 0 -4.8 2.1 -6.3 9.1 -6.4 6.5 0 7.5 -0.6 5.2 -3.2 -1.5 -1.7 -1.4 -1.8 1.6 -1.8 4.6 0 11.4 4.3 15.7 10.1 2.1 2.7 4.1 4.9 4.4 4.9 0.4 0 2.5 1.6 4.9 3.6 4.8 4.2 7.3 8.7 9.1 16.4 0.7 3 1.8 6.4 2.4 7.5 0.7 1.1 2.4 6.3 4 11.5 1.5 5.2 3.6 11.8 4.8 14.5 1.1 2.8 3.1 7.9 4.3 11.5 2.9 8.2 7.6 19.3 10.4 24.9 4.4 8.6 1.5 12.9 -9.2 13.9 -5.6 0.5 -6.7 -0.4 -6.7 -5.6 0 -3.2 -0.1 -3.3 -3.5 -2.6 -1.9 0.3 -5.7 0.1 -8.5 -0.6 -4.8 -1.2 -5.3 -1.1 -7.6 1.1 -2.1 1.9 -2.4 3.1 -2.4 8.9 0 3.7 -0.3 8.1 -0.6 9.8 -0.6 2.9 -1 3.1 -5.2 3.4 -4.2 0.3 -4.6 0.6 -6.8 4.8 -5.7 11.4 -7.2 14.7 -7.8 17.6 -0.5 2.1 -3.1 5.5 -7.4 9.7 -8.2 8.1 -13.6 12 -20.8 15.2 -7.8 3.5 -23.7 5.8 -25.7 3.8 z "/>
  <path d="M 174.3 318.8 c -0.6 -0.7 -1.3 -2.2 -1.8 -3.3 -2.3 -5.9 -5.7 -15.8 -7.4 -21.5 -1 -3.6 -2.6 -9 -3.5 -12 -0.9 -3 -2.3 -8.2 -3.2 -11.5 -0.9 -3.3 -2.5 -7.7 -3.5 -9.7 -1.1 -2.1 -1.9 -5.4 -1.9 -7.5 0 -4.7 5.4 -21.1 8.4 -25.5 1.8 -2.8 2.8 -3.3 6.1 -3.3 l 4 0 0.3 5.4 c 0.2 3.2 -0.4 7.5 -1.3 10.4 -0.9 2.7 -1.9 7.2 -2.2 9.8 -0.6 4.8 -0.4 5.1 3.6 8.9 2.2 2.1 4.1 4.5 4.1 5.3 0 0.7 0.6 1.9 1.3 2.5 0.8 0.9 1.2 5 1.3 12.5 0 6.6 0.5 12.1 1.2 13.4 0.7 1.2 1.2 4.1 1.2 6.5 0 2.7 0.8 5.2 2 6.8 2.6 3.3 2.7 10.1 0.2 12.3 -2.2 2 -7.5 2.2 -8.9 0.5 z "/>
  <path d="M 239 201.4 c 0 -3.2 0.4 -3.7 4.8 -5.6 2.6 -1.2 7.2 -2.4 10.2 -2.7 3.3 -0.4 5 -0.9 4.3 -1.4 -0.7 -0.5 -1.3 -2.8 -1.3 -5.3 0 -2.8 0.4 -4.4 1.3 -4.4 0.6 0 2 -0.7 3 -1.5 1.8 -1.3 1.7 -1.4 -1.2 -3 -2.6 -1.3 -3.1 -2.2 -3.1 -5 0 -2.8 -0.4 -3.5 -2 -3.5 -1.1 0 -2 -0.4 -2 -0.9 0 -0.9 2.8 -2.3 13.3 -7 8.6 -3.9 28.6 -4.6 24.9 -0.9 -0.7 0.7 -1.6 0.8 -2.4 0.1 -0.7 -0.5 -3.7 -0.7 -6.6 -0.5 -4.6 0.3 -5.6 0.8 -7.9 3.8 -2.4 3.3 -2.5 3.5 -0.9 5.3 1 1.1 4 2.9 6.7 4 2.7 1.2 4.9 2.6 4.9 3.1 0 0.6 1.4 1 3.1 1 2.9 0 3.1 0.2 2.4 2.7 -0.9 3.7 -1.1 3.9 -4.4 2.6 -2.6 -1 -3.2 -0.7 -6.4 2.3 -1.8 1.8 -4.5 3.8 -5.9 4.3 -1.6 0.6 -3.3 2.6 -4.4 5 -1.1 2.5 -2.7 4.4 -4.3 5 l -2.6 0.9 2.7 0.1 c 1.5 0.1 3 0.6 3.3 1.1 0.4 0.6 -2.3 1 -7.5 1 -4.9 0 -9.5 0.6 -11.7 1.5 -1.9 0.8 -5.1 1.5 -6.9 1.5 -3.2 0 -3.4 -0.2 -3.4 -3.6 z "/>
 </g>
 <g fill="#2e241a">
  <path d="M 279 284.4 c -1.4 -3.5 -1.2 -17.5 0.2 -23.2 0.8 -3.3 2.5 -6 5.9 -9.4 l 4.8 -4.8 7 0 c 6.9 0 7.1 0.1 8.7 3.1 1.2 2.3 1.5 5.1 1.2 10.3 -0.4 8.6 -2.9 14.1 -9.6 21.4 -4.8 5.2 -4.8 5.2 -11 5.2 -5.8 0 -6.3 -0.2 -7.2 -2.6 z "/>
  <path d="M 241.7 261.3 c -0.4 -0.3 -0.7 -4.5 -0.7 -9.2 0 -10.4 2.5 -16.3 8.5 -19.7 5.4 -3.1 18.7 -5.8 25.1 -5 8.1 0.9 8.4 1.2 8.4 6.6 0 4.7 -0.1 4.9 -5.7 9 -3.2 2.2 -10.4 7.4 -16 11.5 -9 6.6 -10.7 7.5 -14.6 7.5 -2.4 0 -4.7 -0.3 -5 -0.7 z "/>
 </g>
 <g fill="#5d120c">
  <path d="M 137.9 435.4 c -6.3 -4.2 -12.2 -8.3 -13.1 -9.1 -2 -1.8 -2.5 -9.1 -0.9 -12.1 0.5 -0.9 1.2 -2.5 1.5 -3.4 0.3 -1.1 1.5 -1.8 3 -1.8 4.2 0 8.9 -8.8 18.1 -34 7 -19.2 7.4 -20 10.9 -20 2 0 2.2 0.4 1.8 3.3 l -0.5 3.2 2.5 -2.2 c 1.3 -1.3 3.2 -2.3 4.1 -2.3 0.9 0 1.7 -0.7 1.7 -1.5 0 -0.8 0.5 -1.5 1 -1.5 1.3 0 1.3 7.3 0.1 8.6 -0.6 0.5 -3.1 7 -5.7 14.4 -2.5 7.4 -5.5 14.7 -6.5 16.1 -2.3 3.3 -8.1 18.8 -7.4 19.9 0.3 0.4 2.6 1.5 5.3 2.4 2.6 0.9 7.5 3.5 11 5.9 l 6.2 4.2 -0.2 5 -0.3 5 -6.2 0 -6.3 0 0 3.7 0 3.8 -4.3 0 c -3.8 0 -6 -1.1 -15.8 -7.6 z "/>
  <path d="M 376 419.5 c -1.3 -3.4 -11.4 -18.7 -16.5 -25 -2.3 -2.8 -5 -6.3 -6 -7.8 l -1.7 -2.7 -3.6 3.2 c -2 1.7 -6.4 4.4 -9.8 5.9 -3.4 1.5 -7.5 3.9 -9.2 5.4 -5.6 4.7 -15.5 8.7 -20.9 8.3 l -4.8 -0.3 -0.3 -4.2 c -0.3 -3.8 0 -4.4 3.5 -7 2.1 -1.5 4.2 -3.2 4.8 -3.6 1.2 -1 6.5 -3.9 12.4 -6.8 10.9 -5.3 25.6 -16.1 28.7 -21.1 1.3 -2 5 -5.9 8.1 -8.5 3.2 -2.6 6.9 -5.8 8.3 -7.1 1.4 -1.3 3.7 -3.5 5.1 -4.8 1.4 -1.4 3.9 -5.5 5.4 -9.2 1.6 -3.7 3.8 -7.8 5 -9.2 3 -3.3 4.5 -6.4 4.5 -9.2 0 -1.3 0.7 -3.2 1.5 -4.2 0.8 -1.1 1.5 -2.8 1.5 -3.8 0 -2.4 -7.9 -22.6 -9.1 -23.4 -0.5 -0.3 -0.9 -2 -0.9 -3.8 0 -3 0.4 -3.4 4.3 -4.5 5.2 -1.6 6.7 -2.8 6 -4.8 -0.4 -1.1 0 -1.4 1.8 -1.1 1.9 0.2 3.3 2 6.3 7.9 3.7 7.4 3.8 8 4.4 20.7 0.5 14.5 -0.2 18.9 -4.8 28.6 -5.9 12.3 -18.6 30.1 -23.9 33.5 -1.4 0.9 -5.2 4.4 -8.4 7.8 l -5.9 6.2 5.5 6.5 c 3 3.7 8.4 12.2 12.1 19 8.6 16.2 8.9 21.6 0.9 21.6 -2.7 0 -3.5 -0.5 -4.3 -2.5 z "/>
  <path d="M 165.6 244.3 c 0.3 -1.6 1.2 -4.7 2 -7.1 2.3 -6.9 1.6 -11.5 -1.3 -9.1 -1 0.9 -1.3 0.5 -1.3 -2.3 0 -1.9 0.5 -3.9 1.2 -4.6 0.8 -0.8 0.2 -2.2 -2.5 -5.6 -2.7 -3.3 -3.7 -5.4 -3.7 -8 0 -3.4 0.2 -3.6 3.3 -3.6 2.5 0 4.2 0.9 7.2 4 l 3.9 4 5.1 -5.3 c 6 -6.1 10.2 -9.2 25.3 -18.4 17.1 -10.4 20.6 -12.3 22.4 -12.3 0.9 0 3.2 -0.9 5 -1.9 5.8 -3.3 8.7 -3.6 3.7 -0.3 -5.2 3.3 -6.8 5.2 -4.5 5.2 0.8 0 1.7 -0.4 2.1 -0.9 0.3 -0.5 2.7 -1.7 5.3 -2.7 2.6 -1 7 -3.3 9.9 -5.2 2.8 -1.9 7.1 -3.8 9.5 -4.3 2.4 -0.5 5.1 -1.2 6.1 -1.5 2.8 -0.9 2 2.3 -1.3 4.6 -1.6 1.2 -3 2.5 -3 3 0 0.5 1.8 1.9 4 3.1 6.4 3.6 6.3 6.3 -0.5 8.9 -4.1 1.6 -4.2 2.1 -1.4 6 1.2 1.6 1.9 3.6 1.6 4.4 -0.7 1.7 -5.7 2.2 -5.7 0.6 0 -0.7 -3 -0.8 -8.3 -0.4 -7.6 0.6 -8.5 0.5 -9.8 -1.3 -1.9 -2.6 -7.3 -4.6 -10.1 -3.8 -1.3 0.4 -4.1 2 -6.3 3.5 -2.2 1.5 -5.7 3.8 -7.7 5.1 -2.1 1.3 -3.8 2.8 -3.8 3.3 0 0.4 -1.8 2.5 -4 4.5 -3.7 3.4 -4 4 -3 6.5 0.5 1.5 1 4.1 1 5.7 0 2.8 -0.2 2.9 -4.5 2.9 -2.5 0 -4.5 -0.4 -4.5 -0.9 0 -0.5 -1.6 -1.1 -3.5 -1.3 -1.9 -0.2 -3.5 -0.1 -3.5 0.2 0 0.3 -2.5 3.1 -5.5 6 -5 5 -10.5 12.9 -10.5 15.2 0 2.2 -4.5 6.8 -6.7 6.8 -2 0 -2.3 -0.4 -1.7 -2.7 z "/>
 </g>
 <g fill="#710908">
  <path d="M 179.8 315.7 c 2.7 -2.8 2.7 -3.5 0.2 -6.7 -1.2 -1.6 -2 -4.1 -2 -6.8 0 -2.4 -0.7 -5.6 -1.5 -7.1 -1 -2.1 -1.4 -5.8 -1.2 -13.4 0.1 -7.4 -0.2 -11 -1 -11.8 -0.7 -0.7 -1.3 -2 -1.3 -2.9 0 -0.9 -1.3 -2.6 -3 -3.8 -3.8 -2.8 -7.2 -9.3 -5.9 -11.3 0.5 -0.8 0.9 -2.5 0.9 -3.8 0 -1.3 1.4 -4 3 -6.1 1.7 -2.1 3 -4.3 3 -4.8 0 -2.3 4.7 -9 10.4 -15 6.5 -6.7 10.2 -9 12 -7.2 0.5 0.5 2 1 3.3 1 1.8 0 2.3 0.6 2.3 2.4 0 4.1 -1.1 5.6 -4 5.6 -2 0 -4 1.4 -7.5 5.1 -4.1 4.4 -4.6 5.4 -4.1 8.2 0.3 1.7 0.7 3.1 0.9 3.2 0.1 0.1 1.8 1.1 3.8 2.3 l 3.5 2.1 3.8 -8.2 c 2.1 -4.5 4.2 -9.6 4.7 -11.2 0.5 -1.7 2.6 -4.7 4.6 -6.8 6.9 -6.8 22.8 -19.8 26.1 -21.5 2 -1 3.2 -2.3 3.2 -3.6 0.1 -1.2 0.9 -3.1 1.9 -4.4 2.1 -2.5 4.5 -2.1 7.2 1.1 1.4 1.8 2 1.9 8.8 0.7 6.4 -1.2 7.4 -1.2 8.8 0.3 2.6 2.5 0.9 4.4 -4.4 4.9 -2.6 0.3 -7 1.5 -9.7 2.6 -5.6 2.5 -5.8 4 -0.3 1.7 2 -0.8 5.1 -1.5 6.9 -1.5 3.3 0.1 3.3 0.1 -1.2 1.9 -10.5 4.2 -26.3 17.2 -35.8 29.5 -5.2 6.8 -10.6 20.1 -12.2 30.3 -1.2 7.6 -3.8 17.3 -4.7 17.3 -0.3 0 -0.3 -2.8 0 -6.2 l 0.6 -6.3 -1.3 4.1 c -0.8 2.2 -2.1 5.5 -3 7.2 -2 4 -2 9.9 0 14.8 0.9 2.2 1.4 5.3 1.1 7.4 -0.3 2.3 0.2 4.8 1.3 6.9 l 1.7 3.4 -3.7 3.3 c -4.5 4.1 -7.8 5.4 -13.7 5.4 l -4.6 0 2.1 -2.3 z "/>
  <path d="M 341.6 314.1 c -1.4 -2.2 -2.8 -6.1 -3.2 -8.9 -0.6 -4.4 -0.3 -5.6 2.7 -10.9 l 3.3 -6.1 3.3 1.6 c 1.8 0.9 3.6 1.2 4 0.8 0.5 -0.4 0.9 -4.8 1 -9.8 0.2 -8.7 0.3 -9.2 3.3 -12.3 l 3.2 -3.3 6.2 1.7 c 7.2 2 11.3 1.7 12.1 -0.9 0.3 -1 1.2 -2.1 2 -2.4 1.8 -0.7 2.8 2.6 2 6.4 -0.4 1.6 -0.4 3.9 0 5 0.6 1.8 1.2 2 3.7 1.5 l 3 -0.7 -1.7 2.5 c -1.1 1.7 -1.3 2.7 -0.6 3.2 1.7 1 1.3 3.2 -0.8 3.8 -1.3 0.3 -2.5 2.6 -4.1 7.8 -1.1 4.1 -2.8 8.7 -3.6 10.2 -0.8 1.6 -1.4 4.1 -1.4 5.7 0 3.2 -0.7 3.6 -8.3 4.5 -3.5 0.5 -6.2 1.4 -7.3 2.6 -1.4 1.5 -3.1 1.9 -9 1.9 l -7.4 0 -2.4 -3.9 z "/>
 </g>
 <g fill="#850606">
  <path d="M 308 394.3 c -6.7 -8.7 -15.6 -26.2 -16.3 -32.1 -0.3 -2.5 -1.5 -5.4 -2.6 -6.6 -1.2 -1.2 -2.1 -3.2 -2.1 -4.3 0 -1.2 -0.8 -2.3 -2 -2.6 -1.6 -0.4 -2 -1.4 -2 -5.1 0 -4.6 0 -4.6 3.3 -4.5 3.1 0.2 3.1 0.2 0.4 0.6 -4 0.6 -2.8 2.8 1.4 2.6 9.4 -0.5 18.2 -3.6 26.1 -9.3 7.7 -5.6 17.6 -16 18.4 -19.4 0.3 -1.7 1.7 -5.1 2.9 -7.6 1.3 -2.5 2.6 -5.5 3 -6.7 1 -3.7 2.2 -2.6 2.9 2.8 0.4 2.8 1.8 6.8 3.2 9 2.2 3.6 2.8 3.9 6.7 3.9 3.3 0 4.9 -0.6 6.6 -2.4 1.4 -1.5 3 -2.2 4.2 -1.9 1 0.3 2.6 0 3.4 -0.7 0.8 -0.6 1.9 -0.9 2.5 -0.5 2.2 1.4 5 -0.6 5 -3.5 0 -1.6 0.6 -4.1 1.4 -5.7 0.8 -1.5 2.4 -6.1 3.6 -10.1 1.8 -5.9 2.7 -7.5 4.7 -8.3 1.3 -0.5 2.8 -0.7 3.3 -0.4 0.4 0.3 2.7 5.3 5.1 11.2 4.6 11.7 5.3 17.5 2.6 21.7 -1 1.4 -1.7 3.5 -1.7 4.6 0 2.7 -1.3 5.2 -4.5 8.6 -1.4 1.5 -2.5 3.1 -2.5 3.6 0 1 -1.4 2.7 -4.4 5.8 -3.2 3.2 -15.2 1.9 -20.5 -2.2 -1.3 -1 -4.2 -2.1 -6.5 -2.5 -2.8 -0.4 -5.2 -1.7 -7.4 -4 -4 -3.9 -6.1 -4.1 -9.2 -0.9 -1.2 1.4 -3.6 2.8 -5.2 3.1 -3.4 0.8 -17.8 11.2 -17.8 12.9 0 1.5 4.5 8.3 7.9 11.9 2.6 2.8 2.6 3.1 2.6 18.1 l 0.1 15.3 -3.1 2.2 c -1.7 1.1 -3.6 2.1 -4.2 2.1 -0.5 0 -2 0.9 -3.3 2 -3 2.6 -3.4 2.5 -6 -0.7 z "/>
  <path d="M 189.6 257.2 c -0.3 -0.5 -0.7 -2.8 -0.8 -5.2 -0.3 -3.7 -0.8 -4.5 -3.9 -6.3 -2.5 -1.5 -4.1 -3.4 -5.2 -6.5 -1.5 -4 -1.5 -4.5 0 -7 3.5 -5.6 9.6 -11.2 12.4 -11.2 1.6 0 2.9 -0.7 3.3 -1.6 1 -2.7 0 -2.8 -4.9 -0.4 -5.8 2.8 -7.3 1.6 -3.6 -2.9 2.8 -3.4 2.9 -3.5 5.4 -1.8 1.5 0.9 3.8 1.7 5.2 1.7 1.4 0 2.5 0.5 2.5 1 0 0.6 0.7 1 1.6 1 1 0 1.2 -0.5 0.7 -1.2 -0.8 -1.4 -0.9 -1.7 -1.9 -6 -0.5 -2.3 0.1 -3.4 4 -7.2 2.5 -2.5 4.6 -4.9 4.6 -5.3 0 -0.4 1.7 -1.9 3.8 -3.2 2 -1.3 5.6 -3.7 7.9 -5.3 5.3 -3.6 12 -5 16.1 -3.3 4.2 1.8 4.7 3.3 2.3 5.9 -1.2 1.2 -2.1 3.1 -2.1 4.2 0 1.3 -1.2 2.6 -3.2 3.6 -3.3 1.7 -19.2 14.8 -26.1 21.6 -2.1 2 -4.1 4.8 -4.4 6.2 -0.3 1.4 -2.3 6.2 -4.5 10.7 -2.1 4.5 -4 9.8 -4.2 11.7 -0.8 5.8 -3.4 9.3 -5 6.8 z "/>
 </g>
 <g fill="#a40907">
  <path d="M 260.7 466.3 c -0.4 -0.3 -0.7 -2.5 -0.7 -4.8 0 -5 3.3 -8.6 9.5 -10.5 6.4 -2 10.6 -4.2 11.8 -6.4 2.3 -4.3 3.5 -19.3 2.9 -37 -0.3 -10.6 -0.1 -17.6 0.4 -17.6 0.6 0 1.8 1.4 2.8 3.1 1.7 2.8 1.9 6 2.2 26.3 0.2 12.7 0.4 24 0.4 25.2 0 2 0.9 2.2 13.5 3.4 l 13.5 1.4 0 3.6 c 0 3.5 -0.1 3.6 -5.3 4.8 -2.9 0.6 -6.4 1.2 -7.8 1.2 -1.4 0 -4.6 1.3 -7 2.9 -2.4 1.7 -6.5 3.5 -8.9 4 -5 1.2 -26.3 1.5 -27.3 0.4 z "/>
  <path d="M 300 403.6 c -0.5 -1.3 -1.2 -2.5 -1.7 -2.7 -0.9 -0.5 -5 -11.4 -6.4 -17.4 -0.6 -2.1 -2.3 -6.4 -3.8 -9.5 -3.7 -7.1 -8.1 -17.8 -8.1 -19.4 0 -0.7 -1.1 -3.4 -2.4 -6 l -2.4 -4.8 2.9 -1.6 c 1.6 -1 2.9 -2 2.9 -2.4 0 -0.5 1.7 -0.7 3.8 -0.7 2.3 0.1 2.8 0.3 1.5 0.6 -2.7 0.5 -2.8 0.7 -0.7 3.8 1 1.5 2.6 2.5 4.1 2.5 2.1 0 2.2 0.2 1.2 2.1 -0.9 1.7 -0.7 2.5 1.1 4.4 1.3 1.4 2.5 4.3 2.9 7.2 0.8 6.3 11.7 27 17.2 32.9 2.2 2.3 2.3 2.6 0.6 3.5 -0.9 0.6 -2.9 2.1 -4.5 3.5 -2.5 2.2 -2.6 2.5 -0.9 3.8 2.6 2 2.1 2.6 -2.3 2.6 -3.4 0 -4.2 -0.4 -5 -2.4 z "/>
  <path d="M 320.7 384.3 c 0.5 -3.2 0.8 -9.6 0.8 -14.4 0 -8.3 -0.1 -8.6 -3.6 -12.7 -4.5 -5.3 -9.2 -13.9 -8.6 -15.7 0.9 -2.1 16 -13.1 19.3 -13.9 1.6 -0.4 4.1 -1.9 5.6 -3.3 1.6 -1.6 4.2 -2.7 6.7 -3 3.6 -0.4 4.4 -0.1 7.8 3.5 2.8 2.8 4.9 4.1 7.9 4.5 2.3 0.4 5.2 1.5 6.5 2.5 3.7 2.9 11.4 4.5 13.9 3 1.1 -0.7 2.3 -2.1 2.6 -3 0.3 -0.9 1.4 -2 2.5 -2.3 1 -0.4 1.9 -1.5 1.9 -2.5 0 -3.3 1.2 -5 3.5 -5 3.6 0 3.8 1.6 0.7 5.2 -1.6 1.8 -4.1 6.3 -5.7 10 -1.5 3.7 -4 7.9 -5.6 9.4 -6.1 5.7 -7.6 7.1 -13.2 11.7 -3.1 2.6 -6.8 6.5 -8.1 8.5 -2.5 3.9 -6.5 7.3 -17.7 14.6 -6.3 4.2 -15.1 8.6 -17 8.6 -0.5 0 -0.6 -2.5 -0.2 -5.7 z "/>
 </g>
 <g fill="#764e25">
  <path d="M 276 345.5 c -0.6 -1.2 -1 -3 -0.8 -4.1 0.2 -1.5 -0.4 -2 -2.9 -2.2 -3.2 -0.3 -3.2 -0.3 -2.2 3 0.5 1.8 0.9 3.4 0.9 3.5 0 0.8 -4.7 0.2 -5.6 -0.7 -0.5 -0.5 -6.5 -1.2 -13.4 -1.5 -12.5 -0.7 -26.5 -3.5 -35.7 -7.3 -3.2 -1.3 -4.3 -2.2 -4.3 -3.9 0 -2 0.4 -2.2 3.3 -1.7 l 3.2 0.5 -2.5 -1.6 c -2.4 -1.5 -2 -1.6 6.9 -1 5.2 0.4 10.6 1.1 12 1.7 1.4 0.5 10.4 1.3 19.9 1.8 9.5 0.5 19.4 1.2 22 1.6 16.2 2.1 36.5 -11.2 47.4 -31 2.3 -4.2 6.4 -17.9 7.3 -24.1 0.3 -2.7 1.8 -9.2 3.3 -14.4 l 2.6 -9.3 -2.6 -10.2 c -4 -15.6 -6.2 -19.6 -12.8 -22.8 -7.4 -3.7 -19.2 -7.4 -26.4 -8.3 -3.3 -0.4 -7.3 -1.3 -9 -2 -1.7 -0.7 -6 -1.8 -9.6 -2.3 -3.6 -0.6 -10.2 -1.9 -14.7 -2.9 l -8.2 -1.7 -11 4.8 c -7.5 3.2 -12 4.6 -14.3 4.4 l -3.3 -0.3 6 -4.7 c 12 -9.6 22 -11.6 38.5 -7.9 17.4 4 23.7 5.3 32 6.7 11.6 1.8 12.4 2.1 20.8 5.9 10.2 4.8 10.7 5.5 17.9 24.5 4.6 12.1 5.2 22.9 1.5 29.7 -1.2 2.3 -2.7 7.7 -3.3 12 -1 7.6 -5.3 21.2 -8.6 27.6 -8.2 15.9 -26.5 30.4 -40.7 32.1 -4.3 0.6 -5.6 1.1 -5.6 2.4 -0.1 0.9 -1.6 2.7 -3.4 3.8 l -3.4 2.2 -1.2 -2.3 z "/>
  <path d="M 165.5 215 c -2.1 -2.2 -4.4 -4 -5 -4 -0.6 0 -2.9 -1.8 -5 -4 -2.1 -2.2 -4.4 -4 -5 -4 -1.7 0 -10 -7.2 -14.9 -13 -2.5 -3 -6.3 -7.5 -8.4 -10 -2.1 -2.5 -5.8 -7.4 -8.2 -11 -2.3 -3.6 -5.1 -7.4 -6 -8.5 -1 -1.1 -3.7 -5.6 -6 -10 -2.3 -4.4 -4.8 -8.7 -5.5 -9.5 -0.7 -0.8 -3 -4.4 -4.9 -7.8 -2.7 -4.9 -3.6 -7.5 -3.6 -11.2 0 -5.6 1.5 -7.3 6.1 -6.8 2.7 0.2 3.7 1.1 5.5 4.5 1.2 2.3 5 7.7 8.4 11.9 4 4.9 6.6 9.2 7.2 11.7 0.8 3.6 8.6 18.3 11.2 21 0.6 0.7 1.6 2.4 2.3 3.8 1.9 4.5 14.5 17.9 22.1 23.6 4 3 9.9 7.9 13.1 10.9 l 5.9 5.5 5.1 -4.5 c 7.7 -6.9 15 -12 22 -15.5 3.4 -1.8 11.6 -6.9 18.2 -11.4 6.6 -4.5 13.2 -8.8 14.7 -9.6 1.5 -0.7 3.6 -2.1 4.7 -3.1 1.1 -1 4 -2.8 6.5 -4 2.5 -1.3 5.9 -3.3 7.5 -4.6 1.7 -1.2 6.4 -3.3 10.5 -4.6 6.5 -2 9.5 -2.3 22 -2.3 11.9 0.1 15.8 0.5 21.5 2.2 3.9 1.2 10.2 2.5 14 2.8 14.7 1.3 19.2 3.8 34.2 19.4 10.5 10.7 11.1 11.7 14.7 24.2 1.8 6.3 2 9.7 0.6 11.9 -0.8 1.3 -1.1 1.2 -2.4 -0.5 -1.5 -1.9 -2.1 -3.7 -4.6 -13.3 -1.4 -5.3 -4.7 -10 -10 -14 -2.4 -1.9 -5.9 -5.3 -7.8 -7.7 -1.8 -2.4 -6.1 -6 -9.4 -8 -5.3 -3.1 -7.3 -3.7 -16.7 -4.7 -6.7 -0.6 -12.7 -1.9 -16.3 -3.4 -10.3 -4.3 -24.2 -4.9 -35.4 -1.5 -3.6 1 -21.8 10.6 -25.4 13.4 -3.3 2.4 -10.8 7.3 -18.1 11.7 -32.1 19.3 -35.1 21.3 -43 29.3 -3.2 3.1 -6.6 5.7 -7.6 5.7 -1 0 -3.9 -2 -6.3 -4.5 -2.4 -2.4 -4.6 -4.3 -4.8 -4 -0.3 0.2 1.4 2.6 3.7 5.3 2.2 2.8 4.1 5.3 4.1 5.6 0 1.5 -1.9 0.3 -5.5 -3.4 z "/>
 </g>
 <g fill="#cb1c0c">
  <path d="M 166 450.3 c -0.8 -0.3 -4.5 -1.9 -8.2 -3.6 -5.5 -2.4 -6.8 -3.4 -6.8 -5.3 0 -1.7 0.4 -2.1 2 -1.7 3 0.8 2.5 -1.5 -1.6 -7.2 l -3.5 -5 2.6 -0.3 c 1.7 -0.2 4.1 0.7 6.5 2.3 4.9 3.4 10.4 3.9 10.8 1 0.1 -1.5 -1.5 -3.2 -6.3 -6.4 -3.6 -2.4 -6.5 -4.8 -6.5 -5.3 0 -1.5 7.4 -0.8 11.5 1.1 l 4 1.7 1 -3 c 1 -3 1.1 -3.1 8.4 -3.4 l 7.4 -0.3 -0.5 5.1 c -0.4 3.7 -1.2 5.8 -3.2 7.9 -1.9 2 -2.6 3.7 -2.6 6.8 0 5.4 -0.8 7.3 -3.1 7.3 -1.6 0 -1.9 0.8 -1.9 4.5 l 0 4.5 -4.2 -0.1 c -2.4 0 -5 -0.3 -5.8 -0.6 z "/>
  <path d="M 115.2 419.2 l -6.3 -5.7 0.3 -5.5 0.3 -5.5 5.3 -0.3 c 2.8 -0.2 5.2 -0.7 5.2 -1.3 0 -0.5 2 -0.9 4.5 -0.9 3.1 0 4.7 -0.5 5.1 -1.5 0.3 -0.8 1.4 -1.7 2.5 -2 1.4 -0.5 1.9 -1.6 1.9 -3.9 0 -1.8 1 -4.6 2.4 -6.5 1.4 -1.8 2.7 -5.2 3.1 -7.4 0.9 -5.7 5.5 -14.4 8.3 -15.6 1.3 -0.6 3.4 -1.1 4.8 -1.1 3.2 0 3.7 -1.7 -7.1 26.2 -2.5 6.4 -4.5 11.9 -4.5 12.3 0 0.3 -1.8 3.3 -4.1 6.6 -3.2 4.8 -4.4 5.9 -6 5.4 -1.3 -0.5 -2.1 -0.1 -2.5 1.2 -0.3 1 -1 2.6 -1.5 3.5 -1.3 2.5 -1.1 3.9 0.8 6 1.5 1.7 1.4 1.8 -2.3 1.8 -3.3 -0.1 -4.8 -0.9 -10.2 -5.8 z "/>
 </g>
 <g fill="#9c4120">
  <path d="M 231.3 326.6 c -6.2 -3 -8 -4.5 -12.1 -10.2 -7.5 -10.2 -8.6 -14.8 -8 -35.1 0.5 -14.3 1 -18.7 3.7 -29.3 3.2 -13.1 8.3 -28.6 9.9 -30.2 0.5 -0.5 2.7 -0.8 4.8 -0.6 l 3.9 0.3 0.3 6.2 c 0.2 4.4 -0.2 7.2 -1.4 9.5 -3.6 6.9 -8.5 29.8 -9.1 41.8 l -0.5 11.5 4.1 8.5 c 2.3 4.7 5.2 9.5 6.5 10.6 3.3 3.1 8.1 5.4 11.1 5.4 6.8 0 16.7 -8.1 27.3 -22.2 l 6.6 -8.9 4.5 0.3 c 4.4 0.3 4.6 0.4 4.9 3.6 0.6 6.4 -8.7 22 -19.2 32 -7 6.7 -12.3 8.9 -23.6 9.8 -5.9 0.5 -7.1 0.3 -13.7 -3 z "/>
  <path d="M 183 324.1 c 0 -0.7 -1.9 -1.1 -4.8 -1.1 -3.6 0 -5.4 -0.5 -6.7 -2 -1.9 -2.1 -7.8 -18.2 -8.9 -24.5 -0.4 -2.2 -1.3 -5.8 -2.1 -8 -0.7 -2.2 -2.1 -7.6 -3 -12 -1 -4.4 -2.3 -9.9 -3.1 -12.3 -1.8 -5.4 -1.8 -12.2 -0.1 -12.2 1.4 0 5 8 7.1 15.5 0.7 2.8 2.1 7.7 3.1 11 1 3.3 2.6 8.9 3.6 12.5 1.7 5.7 5.1 15.6 7.4 21.5 1.3 3.3 2.7 4.6 3.9 3.6 0.6 -0.4 2.8 -1.1 4.9 -1.5 2.2 -0.4 5.4 -2.1 7.6 -4.2 4.2 -3.7 6.5 -4.3 7.5 -1.8 1.3 3.3 0.6 5.2 -2.3 6.2 -1.6 0.6 -4.6 2.5 -6.8 4.4 -6.1 5.4 -7.3 6.2 -7.3 4.9 z "/>
  <path d="M 201.7 308.7 c -0.4 -1 -0.7 -2.6 -0.7 -3.5 0.1 -1.5 0.2 -1.5 1.1 0.1 0.6 1 0.9 2.5 0.7 3.5 -0.3 1.6 -0.4 1.5 -1.1 -0.1 z "/>
 </g>
 <g fill="#ea1f06">
  <path d="M 228.5 465 c -18.8 -0.8 -26.7 -2.4 -46.4 -9.1 -10.1 -3.5 -14 -5.7 -14.1 -8.2 0 -0.4 1.2 -0.4 2.8 -0.1 2.4 0.7 2.6 0.6 1.4 -0.9 -2 -2.4 0.4 -9 3 -8.1 2.2 0.7 3.6 -3.9 1.8 -6.1 -1.3 -1.6 -1 -2.2 3.6 -7.5 1.2 -1.4 2.5 -3.5 2.9 -4.7 0.6 -2.1 0.3 -2.3 -3.4 -2.3 -4.4 0 -5.6 1.1 -5.3 5.2 0.3 3.6 -1.6 3.6 -10 0.4 -3.5 -1.4 -9.6 -3.7 -13.5 -5.1 -4 -1.5 -7.5 -3 -7.7 -3.4 -0.7 -1 6.9 -21.4 9.1 -24.8 1 -1.5 2.7 -5.2 3.9 -8.2 2 -5.3 2.3 -5.6 5.8 -5.9 4.5 -0.4 6.3 1 8.8 6.4 1 2.3 3.7 5.6 6.1 7.5 2.5 1.9 5.3 5.3 6.7 8.3 3.1 6.1 9.3 12.3 13 12.8 1.6 0.2 3.9 -0.1 5.2 -0.8 3.9 -2.2 8.2 -1.6 12.7 1.6 2.3 1.7 4.5 3.8 4.8 4.8 0.4 0.9 1.9 3.9 3.5 6.5 3.4 5.8 3.8 11.3 0.8 12.2 -1.4 0.4 -2 1.5 -2 3.6 0 2.8 0.2 2.9 4.7 2.9 2.5 0 7 -0.8 10 -1.7 4.3 -1.4 6.2 -1.5 9.4 -0.6 3.3 0.9 4.6 0.7 7.6 -0.8 2.1 -1.1 4.1 -2.6 4.6 -3.4 0.6 -1.1 2.6 -1.5 7.2 -1.5 5.4 0 6.6 0.3 7.5 2 1.1 2.1 5.4 2.8 6.5 1 0.3 -0.5 2.1 -1 3.9 -1 l 3.2 0 -0.6 4.8 c -1 8 -3.1 10 -13.5 13.2 -6.8 2.1 -11.8 8.2 -8 9.6 0.8 0.4 1.5 1 1.5 1.5 0 1 -11.3 0.9 -37.5 -0.1 z "/>
  <path d="M 102.9 407.7 c -9.4 -8.8 -13.9 -15 -13.9 -19.1 0 -2 0.5 -3.6 1 -3.6 0.6 0 1 -1.6 1 -3.5 0 -3.2 0.2 -3.5 3.1 -3.5 1.7 0 4.3 -0.9 5.8 -2 3.3 -2.3 9.9 -3.9 16.2 -4 3.4 0 5.1 0.5 6.5 2.1 1 1.2 3.2 2.8 4.9 3.6 4.4 2.3 7.5 5.4 7.5 7.6 0 1.1 0.6 2.8 1.3 3.6 1.9 2.2 1 9.9 -1.2 10.6 -0.9 0.3 -2.5 1.8 -3.4 3.5 -2 3.4 -2.9 3.6 -5.1 1.5 -1.6 -1.7 -3.6 -2 -3.6 -0.6 0 0.6 -2.4 1.1 -5.2 1.3 -4.7 0.3 -5.3 0.6 -5.6 2.6 -0.2 1.3 0.2 3 0.8 3.8 1 1.2 0.8 1.4 -1.6 1.4 -2.1 -0.1 -4.5 -1.6 -8.5 -5.3 z "/>
  <path d="M 66.9 355.7 c -1.5 -2.3 -3.2 -6 -3.9 -8.2 -0.7 -2.2 -2.1 -6.2 -3.2 -9 -4.9 -11.9 -7.8 -22 -7.8 -26.8 l 0 -5 5.5 0.7 c 4.7 0.5 6 0.3 8.5 -1.5 1.7 -1.3 5 -2.4 7.9 -2.7 5.7 -0.5 9.4 1.4 16.3 8.5 2.9 3 3.7 4.7 4 8.3 0.3 3.9 0.6 4.5 2.8 4.8 3.9 0.6 5 2.1 5 7.2 0 4.1 -0.5 5.3 -4 9.3 -2.2 2.5 -4 4.9 -4 5.4 0 1.5 -4.5 5.3 -6.3 5.3 -0.9 0 -2.2 0.9 -2.9 2 -0.7 1.1 -2.1 2 -3 2 -1 0 -2.3 0.9 -3 2 -0.9 1.5 -2.4 2 -5.3 2 -3.6 0 -4.2 -0.4 -6.6 -4.3 z "/>
 </g>
 <g fill="#f63005">
  <path d="M 208 452.4 c 0 -0.9 2.3 -3.9 5.2 -6.7 4.1 -4 5.2 -5.6 5.3 -8.4 0 -2.4 0.7 -3.8 2 -4.5 1.1 -0.6 2.1 -1.2 2.3 -1.3 0.2 -0.2 -1 -2.4 -2.6 -5.1 -1.5 -2.7 -3.1 -5.7 -3.5 -6.6 -0.3 -1 -2.5 -3.1 -4.8 -4.7 l -4.2 -3.1 -3.8 2.2 c -3.2 1.8 -4.3 2 -6.4 1 -1.4 -0.7 -3.4 -1.2 -4.3 -1.2 -2.7 0 -9.4 -7 -12.2 -12.6 -1.4 -3 -4.2 -6.4 -6.8 -8.4 -2.5 -2 -5 -5 -5.9 -7.2 -0.8 -2.1 -2.6 -4.7 -3.9 -5.7 -1.5 -1.2 -2.2 -2.5 -1.8 -3.5 0.9 -2.3 7 -2.1 10.1 0.4 1.9 1.5 4.1 2 8.3 2 5.6 0 5.8 0.1 8.5 4 1.5 2.2 3.3 4 4 4 0.6 0 2 0.9 3 2 1.5 1.7 2.6 1.9 7.5 1.3 4 -0.4 7.3 -0.1 10.7 1 5.2 1.7 13.6 3.7 16.8 4 1.4 0.1 2.6 -1 4.1 -4.2 1.3 -2.4 3.8 -6.2 5.7 -8.3 3.1 -3.5 3.8 -3.8 8.6 -3.8 3.5 0 6.1 0.6 7.9 1.9 1.5 1.1 5.3 2.2 8.7 2.5 4.6 0.5 6.5 1.2 8 3 1.1 1.3 4.3 3.4 7.1 4.7 l 5.1 2.3 0.7 17 c 0.6 15.3 0.5 19 -0.9 26.1 -0.2 1.1 -1.8 2.6 -3.6 3.4 -1.7 0.8 -3.4 2.3 -3.7 3.4 -0.5 1.9 -0.6 1.9 -1.9 0.2 -0.7 -1.1 -2.3 -2 -3.5 -2.2 -1.3 -0.2 -2.9 -1.2 -3.7 -2.3 -1.9 -2.9 -7 -2.6 -9.9 0.5 -3.3 3.4 -9.3 5.1 -14 3.9 -2.8 -0.7 -5.1 -0.5 -9.5 0.8 -3.7 1.2 -7.6 1.6 -11.2 1.3 l -5.5 -0.5 0 3 c 0 2.3 -0.7 3.3 -3 4.5 -4 2.1 -9 2 -9 -0.1 z "/>
  <path d="M 133.6 392.1 c -1.7 -1.8 -2.6 -3.6 -2.3 -4.5 0.6 -1.5 -4.4 -6.6 -6.3 -6.6 -0.5 0 -2.5 -1.4 -4.5 -3.1 -3.5 -3.1 -3.6 -3.1 -9.1 -2.1 -3 0.7 -6.8 2.1 -8.4 3.2 -1.5 1.1 -4.2 2 -5.9 2 -2.9 0 -3.1 0.3 -3.1 3.5 0 1.9 -0.5 3.5 -1.1 3.5 -0.6 0 -0.9 0.7 -0.5 1.5 0.4 1.1 -0.1 1.5 -1.9 1.5 -2 0 -3.5 -1.6 -7.8 -8.2 -9.9 -15.3 -13.7 -22.3 -13.7 -25.6 0 -3.3 1.6 -4.3 2.6 -1.7 0.9 2.3 2.9 1.8 4.4 -1.1 0.9 -1.6 2 -2.4 3.1 -2.1 1.1 0.3 2.2 -0.4 3 -2 0.8 -1.4 1.8 -2.2 2.7 -1.8 1.5 0.6 6.2 -3.1 6.2 -4.8 0 -0.5 1.7 -2.9 3.8 -5.2 2.1 -2.4 3.9 -5.2 3.9 -6.2 0 -2.6 -1.6 -4.3 -4.1 -4.3 -1.1 0 -3 -0.7 -4.1 -1.6 -1.6 -1.2 -1.8 -1.8 -0.7 -3.4 2 -3.2 1.5 -4.5 -3.6 -9.2 -7.7 -7.2 -9.6 -8.2 -13.4 -6.9 -1.8 0.6 -4.2 2.1 -5.4 3.2 -1.2 1.1 -2.5 1.9 -3 1.8 -0.5 -0.1 -1.7 0.1 -2.6 0.5 -1 0.5 -2.7 0.1 -4.2 -0.9 -2.5 -1.7 -2.6 -1.7 -2.6 0.4 0 1.4 -0.6 2.1 -1.8 2.1 -3.4 0 -7.7 -19 -5.6 -24.4 0.3 -0.9 1.6 -1.6 2.9 -1.6 1.2 0 2.8 -0.6 3.4 -1.4 1.4 -1.7 15.1 -4.1 18.7 -3.2 1.5 0.4 4.4 2 6.3 3.5 2 1.6 4.5 3 5.6 3.2 1.3 0.3 2.1 1.4 2.3 3.2 0.2 1.9 0.9 2.7 2.4 2.7 1.1 0 4.2 1.1 7 2.5 2.7 1.4 6 2.5 7.2 2.5 2.3 0 8.6 5.4 12.1 10.3 1.6 2.3 3 3 6.8 3.4 3.4 0.4 5.5 1.3 7.5 3.3 1.5 1.6 4.6 3.8 7 5 3.6 1.9 4.3 2.8 4.9 6.3 0.4 2.8 1.8 5.4 4.4 8.1 3.4 3.7 3.9 3.9 6.3 2.8 1.5 -0.7 4.7 -1.2 7.1 -1.2 l 4.5 0 0 4.3 c 0 6.3 -8.2 20.7 -12.8 22.6 -3.2 1.3 -7.7 9.5 -8.7 15.8 -0.4 2.3 -1.5 5.3 -2.6 6.7 -1 1.3 -2.2 3.4 -2.7 4.5 -0.7 2.1 -0.8 2.1 -3.6 -0.8 z "/>
 </g>
 <g fill="#da4015">
  <path d="M 155.5 385.5 c 3.8 -11.6 8.8 -24.9 10.9 -28.9 3.8 -6.8 15.9 -21.6 17.9 -21.6 2 0 -1 15.8 -3.5 18.8 -0.8 0.9 -2.1 3.3 -2.8 5.2 -0.8 1.9 -1.9 4 -2.6 4.5 -0.6 0.6 -2 2.6 -3.2 4.6 -2 3.2 -2 3.7 -0.6 5.7 0.8 1.2 1.4 3.6 1.2 5.3 l -0.3 3.1 -2.8 -2.2 c -2.2 -1.8 -3.1 -2 -3.7 -1 -0.4 0.7 -1.3 0.9 -2 0.5 -0.8 -0.5 -2.7 0.9 -5.2 3.6 -2.3 2.6 -3.7 3.6 -3.3 2.4 z "/>
  <path d="M 158.6 354 c 0.4 -2.5 1.1 -5.3 1.5 -6.2 1.4 -2.6 1.1 -5.8 -0.6 -5.8 -2 0 -1.9 -1.5 0.3 -6.1 1.3 -3 2.3 -3.8 4.7 -4.1 3.7 -0.4 5.6 -4.5 3.6 -8.1 -1.6 -3 -1.1 -7.7 1 -9 1.3 -0.8 2.3 -0.3 4.6 2.3 3 3.3 3.1 3.4 7 2.2 2.2 -0.7 4.5 -1.2 5.2 -1.2 2.8 0 0.5 3.9 -5.7 10.1 -7.2 6.9 -14.4 16.3 -19.3 25.1 l -2.9 5.3 0.6 -4.5 z "/>
 </g>
 <g fill="#b7552f">
  <path d="M 310 455 c -1.2 -0.8 -0.9 -1 1.3 -1 5 0 2.8 -2 -2.5 -2.2 -2.9 -0.1 -6.9 -0.3 -8.8 -0.5 -1.9 -0.2 -4.7 -0.3 -6.2 -0.4 -1.6 0 -2.8 -0.3 -2.8 -0.7 0 -2 2.9 -3.2 7.7 -3.2 5.9 0 7 -1.5 2.1 -2.8 -7.1 -1.8 -6.2 -7.5 1.3 -8 3 -0.2 5.5 -1.1 7.4 -2.8 l 3 -2.5 -3.5 0.6 c -9.9 1.8 -11.8 1.7 -12.8 -0.2 -0.5 -1 -1.2 -10.1 -1.4 -20.3 -0.4 -17.5 -0.6 -18.8 -3.1 -24 -2.5 -5.3 -5.6 -14 -7.1 -20.3 -0.6 -2.4 -0.4 -2.8 1 -2.5 2.1 0.4 8 10.8 9.3 16.3 1.5 6.8 5.5 17 7 17.9 0.8 0.5 1 1.1 0.3 1.5 -1.3 0.8 -1.8 14.1 -0.8 20.7 l 0.8 5.1 8.2 -0.1 8.1 -0.1 0.3 4.9 c 0.3 3.8 -0.1 5.3 -1.8 7.1 l -2.1 2.3 3.3 1.1 c 1.8 0.7 6.6 1.5 10.6 1.8 l 7.3 0.6 -0.3 4 c -0.3 4 -0.3 4 -7.3 6.3 -7.2 2.5 -15.9 3.1 -18.5 1.4 z "/>
  <path d="M 373.7 421.3 c -2.1 -4.8 -4.9 -8.3 -7.7 -9.8 -1.6 -0.9 -3 -2.5 -3.3 -4.2 -0.7 -3.3 -10.2 -16.3 -12 -16.3 -0.7 0 -2.1 0.6 -3.2 1.3 -3.1 2.1 -18 6.7 -21.6 6.7 l -3.2 0 2.3 -2.5 c 1.3 -1.4 5.7 -4.1 9.7 -6 4 -1.9 9.3 -5.3 11.7 -7.5 2.4 -2.2 4.8 -4 5.4 -4 0.6 0 2.4 1.7 3.9 3.7 1.5 2.1 4.6 6.1 6.9 8.8 5.2 6.6 15.1 21.7 16.5 25.1 0.9 2.5 1.1 2.6 2.6 1.2 1.4 -1.5 1.3 -2.1 -1.4 -7 l -2.9 -5.4 3 0.5 c 5.9 1.1 7.6 3 7.6 8.7 0 6.6 -2.7 9.4 -8.9 9.4 -3.6 0 -4.4 -0.4 -5.4 -2.7 z "/>
 </g>
 <g fill="#f64d07">
  <path d="M 216.5 470.5 c -2.2 -0.8 -5.1 -1.4 -6.3 -1.4 -1.3 -0.1 -3.6 -1 -5 -2.2 -2.5 -1.9 -3.5 -2 -11.7 -1.4 -7.8 0.6 -9.8 0.4 -14.7 -1.5 -6.9 -2.6 -14.8 -10.7 -14.8 -15.2 0 -1.6 0.4 -2.8 0.8 -2.8 0.5 0 7.2 2.3 15 5 15.2 5.5 30.2 9.4 39.7 10.6 6.7 0.8 8.4 2.2 8.5 7.2 0 3.1 -0.2 3.2 -3.7 3.1 -2.1 -0.1 -5.6 -0.7 -7.8 -1.4 z "/>
  <path d="M 335 453.5 c -1.3 -1.4 -2.9 -2.5 -3.7 -2.5 -1.8 0 -1.7 -1.6 0.2 -2.4 3.4 -1.3 1.1 -2.3 -6.1 -2.9 -5.4 -0.4 -9.1 -1.3 -13 -3.3 l -5.3 -2.7 4.5 -3.4 c 3.3 -2.5 4.4 -4.1 4.2 -5.6 -0.3 -2.1 -0.7 -2.2 -8.3 -1.9 l -8 0.4 -1.3 -7.1 c -0.8 -4.3 -1.1 -9.2 -0.7 -12.6 0.7 -4.9 1 -5.5 3 -5.5 1.5 0 3.7 1.7 6.5 5 2.3 2.8 5 5 6 5 2.4 0 8.7 2.7 12.2 5.3 2.9 2.1 3 2.4 2.4 8 -0.6 6.1 -0.3 6.3 3.6 2.9 2.6 -2.2 16.4 -5 24.7 -5.1 l 5.4 -0.1 -0.6 5.9 c -0.8 8.9 -3.5 14.1 -10.6 20 -7.3 6 -11.3 6.7 -15.1 2.6 z "/>
  <path d="M 227.6 398.8 c -2.1 -1 -6 -2.2 -8.7 -2.5 -8.6 -1 -10.5 -4.6 -3.1 -5.8 5.8 -1 8 -2.2 9.6 -5.4 1.6 -3 7.5 -7.5 14.9 -11.2 4.9 -2.6 12.7 -2.2 18.5 0.9 2 1.1 5.1 2.7 6.7 3.5 1.7 0.9 5.7 2.2 8.9 2.9 5.4 1.2 6.2 1.7 9.3 6.2 2.3 3.3 3.3 5.9 3.3 8.5 -0.1 2.9 -0.3 3.3 -1.1 1.9 -0.5 -1 -1.5 -1.8 -2.2 -1.8 -2.3 0 -10.5 -4.5 -12.3 -6.8 -1.5 -1.8 -3.1 -2.4 -7.8 -2.6 -3.9 -0.3 -6.7 -1.1 -8.7 -2.5 -1.5 -1.2 -3.8 -2.1 -5 -2.1 -2.5 0 -8.3 6 -10.6 11 -1.9 4.2 -5.2 8 -6.7 7.9 -0.6 -0.1 -2.8 -1 -5 -2.1 z "/>
  <path d="M 194.7 393 c -1.9 -1.6 -3.9 -3 -4.4 -3 -0.6 0 -2.3 -1.8 -3.8 -4 -2.9 -4.1 -4.5 -4.7 -9 -3 -3.5 1.3 -6.5 -1 -9.4 -7.3 l -2.2 -4.7 3.1 -5.5 c 1.7 -3 3.5 -5.5 3.9 -5.5 0.4 0 1.3 -1.7 2 -3.7 0.8 -2.1 2 -4.6 2.8 -5.5 1.4 -1.6 2.8 -5.8 4 -12 0.5 -2.5 1 -2.8 4.2 -2.8 3.8 0 9.9 2.6 13.2 5.6 1.4 1.3 3.5 1.6 8.9 1.5 7.7 -0.2 8.1 0 19.2 8.9 4.8 3.8 5.7 5 5.7 7.8 0.1 2.8 -0.3 3.3 -2.9 3.9 -1.6 0.3 -3 0.9 -3 1.3 0 0.5 -1.3 1.3 -3 1.9 -1.7 0.6 -3 1.7 -3 2.7 0 1.4 -0.8 1.6 -5.7 1.1 -5 -0.5 -6.2 -1.1 -10.1 -5 l -4.5 -4.5 -5.7 2 c -4.5 1.5 -6.1 2.6 -7.5 5.2 -1.8 3.3 -1.8 3.5 0 5.2 1 1 2.4 3.3 3.2 5.2 0.8 1.9 3.1 4.9 5.1 6.8 3.1 2.9 4.4 3.4 8.5 3.4 4 0 4.7 0.3 4.7 1.9 0 1.5 -1 2.1 -4 2.6 -2.2 0.4 -4.2 1.1 -4.6 1.6 -0.9 1.5 -2.2 1 -5.7 -2.1 z "/>
  <path d="M 143.6 340.9 c -3.2 -3.3 -4.5 -5.5 -4.9 -8.5 -0.6 -3.7 -1.2 -4.5 -4.9 -6.4 -2.4 -1.2 -5.6 -3.5 -7.2 -5.2 -1.9 -1.9 -3.6 -2.8 -4.8 -2.4 -3.1 0.8 -8.5 -2.1 -10.7 -5.8 -2.3 -3.6 -8.5 -8.9 -9.4 -8 -0.3 0.4 -3.2 -0.6 -6.4 -2.2 -3.2 -1.5 -6.9 -2.8 -8.3 -2.8 -2 -0.1 -2.6 -0.7 -3 -3.1 -0.3 -1.9 -1.2 -3.1 -2.5 -3.4 -1.1 -0.2 -3.6 -1.6 -5.6 -3.2 -2 -1.6 -4.5 -3 -5.5 -3.1 -3.5 -0.5 -12.3 1.4 -13.5 2.8 -0.6 0.8 -2.2 1.4 -3.5 1.4 -2.5 0 -4.2 3.6 -3 6.5 0.4 1.1 -0.1 1.5 -1.8 1.5 -2.7 0 -2.5 0.6 -5.2 -18.2 -1.7 -12.4 -1.7 -12.7 0.2 -16.3 1 -2 2.5 -4.2 3.3 -4.8 0.7 -0.6 5.5 -1.3 10.7 -1.5 l 9.4 -0.4 0.1 4.8 c 0 3.6 0.3 4.3 0.8 2.9 2.1 -5.2 16.3 -8.4 22.1 -5 1.4 0.8 3.2 1.7 4 2 0.8 0.4 2.2 1.1 3 1.6 0.8 0.5 2.5 1.3 3.8 1.9 1.8 0.8 2.2 1.7 2.2 5.4 0 5.2 1.3 6.5 7.7 7.7 6.2 1.2 7.6 2.8 8.3 9.1 0.4 4.3 0.9 5.3 2.5 5.6 1.1 0.2 3.4 1.5 5.1 2.8 2.7 2 3.2 3.1 3.6 8.1 0.4 5 0.9 6.1 4.1 8.7 3.5 3.1 6.7 4.9 14.5 8.1 2.4 1 4.6 2.3 5 2.9 1.4 2.2 7.9 6.4 10.3 6.8 1.6 0.2 2.5 1 2.7 2.7 0.3 1.6 -0.1 2.2 -0.9 1.9 -0.7 -0.2 -2 0.9 -2.9 2.5 -0.9 1.9 -2.9 3.5 -5.5 4.4 -8.2 3 -9.2 2.9 -13.9 -1.8 z "/>
 </g>
 <g fill="#a77332">
  <path d="M 384.1 346.3 c 0 -0.4 2.3 -4.2 5 -8.3 10.8 -16.4 13.5 -24.6 12.6 -39.4 -0.6 -10 -0.7 -10.2 -6.8 -22.1 -6.5 -12.6 -10.5 -21.7 -14.4 -32.5 -1.2 -3.6 -3.2 -8.7 -4.3 -11.5 -2.6 -6.1 -8 -25.1 -8 -28.3 -0.1 -1.7 0.5 -2.2 2.3 -2.2 2 0 2.7 1 4.5 5.8 1.2 3.1 3.2 8.4 4.5 11.7 1.2 3.3 2.9 8 3.8 10.5 2.7 8.2 9.4 23.3 16.9 38 l 7.3 14.5 -0.3 19 -0.3 19 -3.4 7 c -1.8 3.9 -5.5 9.7 -8.2 13 -3.9 4.8 -5.5 6.1 -8.1 6.3 -1.8 0.2 -3.2 0 -3.1 -0.5 z "/>
  <path d="M 214.4 333.1 c -3.9 -1.8 -11.4 -9.4 -11.4 -11.5 0.1 -0.6 1.8 0.8 3.8 3.1 2 2.3 6.4 5.5 9.7 7.2 6.5 3.3 4.7 4.3 -2.1 1.2 z "/>
  <path d="M 225 332 c -7.1 -0.9 -10.9 -2.9 -15.4 -8.2 -4.3 -5 -4.4 -6.3 -0.9 -10 2.5 -2.6 2.6 -5.5 0.1 -3 -3.6 3.6 -7.8 -0.8 -7.8 -8 0 -2.6 -0.7 -7.6 -1.5 -11.3 -1.4 -5.9 -1.4 -8 0.1 -21.8 1.7 -16.8 5.9 -31.5 11.1 -39.1 5.6 -8.1 16.3 -18.5 21.8 -21 8.9 -4 9.5 -4.1 9.5 -1.2 0 2 -0.9 3 -4.2 4.7 -7.4 3.8 -20.6 18.6 -25.9 29.1 -5.9 11.6 -9 34.7 -6.4 47.2 0.8 3.9 1.5 8.8 1.5 10.9 l 0 3.7 4.9 0 c 4.2 0 4.9 0.3 5.5 2.3 1.1 4.3 0.6 8.1 -1.6 10.4 l -2.2 2.3 3 3.1 c 1.9 1.9 4.9 3.6 8.6 4.6 5 1.4 5.8 2 5.8 4 0 1.2 -0.1 2.2 -0.2 2.2 -0.2 -0.1 -2.8 -0.5 -5.8 -0.9 z "/>
  <path d="M 152 252.8 c 0.1 -9.3 3.4 -20.1 8.4 -27.5 1.4 -2.1 2.6 -4.3 2.6 -5 0 -1.9 -11.4 -13.2 -14.8 -14.6 -3.7 -1.5 -21 -18.1 -23.7 -22.6 -10.4 -17.7 -11.5 -20 -11.5 -24.2 0 -3.7 0.2 -4 1.6 -2.8 0.9 0.7 3.9 4.7 6.7 8.9 2.8 4.1 6.8 9.5 8.9 12 2.1 2.5 5.9 7 8.4 10 5 5.9 13.2 13 15 13 1.3 0 14.4 13.5 17 17.4 1.6 2.6 1.6 2.8 -1.2 6.6 -1.6 2.2 -3.9 5.4 -5.1 7 -2.6 3.7 -8.3 20.3 -8.3 24.3 0 2 -0.5 2.7 -2 2.7 -1.8 0 -2 -0.7 -2 -5.2 z "/>
  <path d="M 135.4 177.8 c -1.1 -1.3 -2.6 -3.2 -3.4 -4.3 -1.4 -1.9 -1.4 -1.9 0.3 -0.6 1.8 1.4 6.2 7.1 5.4 7.1 -0.2 0 -1.2 -1 -2.3 -2.2 z "/>
 </g>
 <g fill="#f76b0a">
  <path d="M471.8 256.7 C 471.8 377.6 373.8 475.7 252.8 475.7 131.9 475.7 33.8 377.6 33.8 256.7 33.8 135.7 131.9 37.7 252.8 37.7 373.8 37.7 471.8 135.7 471.8 256.7 Z M236.5 476.4  m -13.2 -9.6 c -4.7 -5.1 1.2 -5.7 35.3 -3.7 22.1 1.4 28 0.7 35.2 -4.1 2.5 -1.6 5.7 -3 7.1 -3 3.5 0 14.8 -2.6 24.6 -5.6 4.4 -1.3 8.4 -2.4 8.9 -2.4 0.6 0 2.2 1.2 3.7 2.6 l 2.6 2.5 6.3 -5.2 c 6.2 -5.2 9 -9.6 10.5 -16.8 l 0.7 -3.3 -6.3 0.7 c -3.5 0.4 -7.4 1.4 -8.7 2.2 -1.3 0.8 -3.1 1.2 -3.9 0.8 -1.6 -0.6 -9.3 4 -9.3 5.6 0 0.5 -1.1 0.9 -2.4 0.9 -3.3 0 -5.3 -5.6 -3.7 -10.3 1 -2.8 0.9 -3.4 -1.1 -5 -2.9 -2.3 -10.4 -5.7 -12.6 -5.7 -0.9 0 -4 -2.6 -6.9 -5.7 -5 -5.4 -5.3 -6 -5.3 -11 l 0 -5.2 2.3 2.2 c 1.3 1.2 2.6 2.9 3 3.9 0.3 0.9 2 1.9 3.7 2.3 2.6 0.6 5.1 -0.2 13.4 -4.2 5.5 -2.7 12.8 -5.8 16.1 -6.8 6.2 -1.9 9.5 -3.6 13.1 -6.7 2.1 -1.9 2.2 -1.8 8.8 6.9 3.7 4.8 7 10 7.3 11.6 0.3 1.7 1.6 3.3 3.3 4.2 2.8 1.5 5.6 5 7.7 9.8 1.5 3.3 2.9 3.4 6 0.5 2.2 -2 3.4 -7.6 1.3 -6.3 -1.5 0.9 -2.4 -4.3 -1 -6 1.3 -1.5 0.8 -2.4 -3.8 -7 -2.7 -2.7 -4.2 -7.4 -4.2 -13.2 0 -5 1.7 -6.3 8 -6.3 3.3 0 4.6 -0.5 6.2 -2.5 2.9 -3.7 6.4 -5.2 14.2 -6 5 -0.5 7.1 -0.4 7.6 0.6 2.8 4.5 23 -23.1 23 -31.5 0 -2.8 4.5 -13.6 6.1 -14.6 1.6 -1.1 9.9 -17.1 9.9 -19.2 0 -1.1 1.2 -4.6 2.8 -7.7 2.5 -5.1 2.7 -6.8 3.1 -19.1 0.3 -14.1 -1.8 -33.1 -4.4 -40 -0.8 -1.9 -1.7 -6.4 -2 -10 -0.4 -3.5 -1.3 -9.1 -2.2 -12.4 -1 -3.9 -1.3 -7.7 -0.9 -10.9 0.5 -3.7 0.3 -5.5 -0.9 -7.4 -0.9 -1.3 -2.7 -5.2 -4 -8.6 -1.3 -3.4 -4.1 -10 -6.3 -14.7 -2.2 -4.7 -4.3 -10.1 -4.7 -12 -0.4 -1.9 -1.8 -6.6 -3.2 -10.5 -1.4 -3.8 -3.1 -9.2 -3.9 -11.9 -0.8 -2.8 -2.6 -6.8 -4.1 -8.9 -1.6 -2.2 -3.2 -4.7 -3.8 -5.6 -1.5 -2.3 -3.4 -3.8 -9.1 -7.2 -2.8 -1.6 -7.6 -5.1 -10.7 -7.7 -25.8 -22.2 -40.8 -33.7 -46.4 -35.8 -2.7 -1 -6.1 -2.6 -7.8 -3.5 -1.6 -1 -5 -2.3 -7.5 -2.9 -2.4 -0.7 -6.5 -2.2 -9 -3.5 -2.5 -1.3 -9.9 -4.1 -16.5 -6.3 l -12 -4 -32 -0.2 c -26.3 -0.2 -54.4 0.3 -60.2 0.9 -0.6 0 -1.8 0.7 -2.5 1.4 -1.6 1.5 -11.9 3.7 -17.5 3.7 -8 0 -15.2 3.6 -32.8 16.3 -1.7 1.2 -6.7 4.8 -11.3 8 -4.5 3.1 -8.2 6.4 -8.2 7.2 0 0.8 -2.1 2.5 -4.7 3.7 -4.8 2.3 -21.9 17.4 -24.3 21.6 -1.2 2 -1.5 2.1 -3 0.7 -1.5 -1.4 -1.8 -1.4 -3 0 -0.7 0.9 -1 2.7 -0.7 4.4 0.4 2 0.1 3.3 -1 4.3 -2.7 2.2 -13.3 17 -15.9 22 -1.3 2.6 -2.4 6 -2.4 7.5 0 1.4 -0.9 3.7 -2.1 4.9 -1.1 1.2 -2.8 3.7 -3.8 5.5 -1 1.9 -2.8 3.9 -4.1 4.6 -3 1.5 -4 3.2 -4 7 0 1.7 -0.4 3.5 -1 3.8 -0.5 0.3 -1 1.5 -1 2.6 0 1.1 -0.8 3.9 -1.9 6.2 -1 2.3 -2.1 5.7 -2.5 7.6 -0.6 3.1 -0.5 3.3 1.7 2.6 1.2 -0.4 4.6 -1 7.5 -1.2 l 5.2 -0.5 0 4 c 0 3.5 -0.4 4.3 -3.5 6.2 -1.9 1.2 -3.5 2.4 -3.5 2.6 0 0.3 0.7 1.9 1.6 3.6 1.7 3.3 1.5 7.2 -0.9 15.3 -0.8 2.8 -1.7 5.7 -1.8 6.5 -0.3 1.2 1.5 1.5 11 1.6 12.2 0.2 11.4 -0.1 15.7 5.8 1.5 2.2 12.1 4 13.9 2.5 0.5 -0.5 2.4 -0.9 4.2 -0.9 3.2 0 3.3 0.1 3.3 3.9 0 2.2 -0.4 4.3 -1 4.6 -1.5 1 -1.2 4.5 0.5 4.5 0.8 0 3.7 2 6.5 4.5 2.8 2.5 5.5 4.5 6 4.5 0.5 0 2.2 1.2 3.8 2.8 1.6 1.5 4.6 4.2 6.6 6 3.3 3.1 3.6 3.8 3.6 8.8 0 3.6 0.4 5.4 1.3 5.4 0.6 0 2.3 0.9 3.7 2 1.4 1.1 3.3 2 4.2 2 2.5 0 4.8 3.9 4.8 8.1 0 4.7 2 6.4 7.4 6 3 -0.2 4.9 0.4 6.8 1.8 1.4 1.2 3.5 2.1 4.6 2.1 2.7 0 3.5 1.5 1.7 3 -1.2 1 -1.2 1.5 0 3.3 1.7 2.7 1.2 9 -1 12.4 -1.3 1.9 -2.2 2.4 -4.1 1.9 -1.3 -0.3 -3.6 -0.9 -5.1 -1.3 -2.8 -0.6 -9.2 -4.8 -10.5 -6.9 -0.4 -0.6 -2.6 -1.9 -5 -2.8 -9.8 -4.1 -16.4 -8.5 -17.9 -11.9 -0.5 -1.2 -1.6 -3.2 -2.4 -4.3 -1.5 -2 -1.4 -2.3 0.2 -3.9 1.6 -1.7 1.6 -1.9 -1.6 -4.5 -1.8 -1.5 -4.5 -3 -6.1 -3.3 -3.3 -0.7 -4.3 -2.9 -2.9 -6.1 2 -4.2 -3.2 -9.6 -7.6 -8 -0.8 0.4 -3.1 -0.6 -5.1 -2.1 -3.3 -2.5 -3.5 -3 -2.9 -6.6 0.6 -3.5 0.4 -4 -1.8 -4.8 -1.4 -0.6 -2.8 -1.5 -3.2 -2 -0.3 -0.6 -1.4 -1.1 -2.4 -1.1 -1 0 -2.4 -0.7 -3.1 -1.5 -0.7 -0.8 -2.7 -1.7 -4.5 -2.1 -4.3 -0.8 -12.1 2.9 -13.8 6.5 -1.2 2.5 -6.6 4.4 -6.8 2.4 -0.4 -4.2 -0.7 -5.4 -1.2 -5.9 -0.3 -0.4 -0.2 -1.5 0.3 -2.5 0.9 -1.6 0.6 -1.8 -4.2 -1.4 -2.9 0.2 -6.1 0.4 -7 0.5 -1 0 -2.9 1.7 -4.2 3.9 l -2.4 3.8 1.8 11.9 c 1 6.5 3.2 16.2 4.8 21.4 1.7 5.2 4.2 13.1 5.5 17.5 1.4 4.4 3.7 10.5 5.1 13.5 1.4 3 2.6 6.4 2.6 7.5 0.1 2 2 6.2 7.7 16.5 14 25.6 22.5 36.9 39.6 52.7 6.1 5.7 12.2 10.9 13.4 11.6 1.2 0.7 7.5 4.8 14 9.2 6.6 4.4 15.3 9.6 19.6 11.5 4.2 1.9 7.6 4 7.7 4.6 0 0.6 2.6 3.9 5.8 7.3 6.8 7.5 9.8 8.4 22.2 7.2 8.6 -0.9 8.7 -0.9 15 2.8 1.3 0.7 11.5 3.5 14.4 4 0.5 0 0 -0.9 -1.1 -2.1 z "/>
  <path d="M 209 393.5 c -1.9 -0.7 -5.5 -1.4 -8 -1.4 -5.5 -0.1 -10.4 -4.1 -13.9 -11.4 -1.2 -2.6 -2.7 -4.7 -3.2 -4.7 -1.5 0 -1 -8 0.8 -11 1.2 -2.1 3.5 -3.5 8.9 -5.4 4 -1.4 7.5 -2.6 7.9 -2.6 0.3 0 3 2.2 5.8 4.9 5.6 5.2 10.7 7.4 10.7 4.6 0 -0.9 1.4 -2.1 3 -2.6 1.7 -0.6 3 -1.4 3 -1.9 0 -0.4 1.4 -1 3.1 -1.4 l 3 -0.6 -5.8 -4.8 c -9.8 -8.2 -10.9 -8.7 -18.9 -8.7 -5.5 0 -7.6 -0.4 -9.2 -1.8 -2.7 -2.4 -9.2 -5.7 -11.4 -5.7 -2.8 0 -2.1 -2.8 1.7 -6.5 2.9 -2.9 4.1 -3.5 7.8 -3.5 2.7 0 4.9 0.6 5.7 1.5 0.7 0.8 2.3 1.5 3.7 1.5 2.6 0 9.8 3.3 10.8 5 0.3 0.5 2 1 3.7 1 1.7 0 4.2 1 5.9 2.4 2.2 1.9 4.5 2.5 11 3.1 7.6 0.7 8.5 1 12.1 4.4 3.4 3.1 4.1 4.5 4.6 9.1 0.7 5 1 5.6 4.7 7.7 2.2 1.2 5.2 2.3 6.6 2.3 1.5 0 3.2 0.7 3.9 1.5 0.7 0.8 2.7 1.5 4.4 1.5 4.4 0 8.6 6.6 8.6 13.5 0 4.6 -0.1 4.7 -1.8 3.2 -1 -0.9 -4.7 -2.3 -8.2 -3 -3.6 -0.7 -8.3 -2.5 -10.6 -4 -2.3 -1.4 -6 -3 -8.2 -3.7 -3.6 -0.9 -4.7 -0.8 -8.1 0.9 -7.3 3.8 -12.9 8.1 -15 11.6 -1.3 2.2 -3 3.6 -4.8 4 -1.5 0.3 -4.4 1 -6.4 1.5 -4.2 1.2 -3.5 1.2 -7.9 -0.5 z "/>
 </g>
 <g fill="#e0771c">
  <path d="M 380.7 409.6 c -1.5 -1.6 -4.6 -6.4 -6.7 -10.6 -2.2 -4.1 -6.9 -11.1 -10.5 -15.5 -3.6 -4.4 -6.5 -8.4 -6.5 -8.8 0 -0.8 12.9 -15 14.2 -15.5 0.5 -0.2 0.8 1.2 0.8 3.2 0 2 0.5 3.6 1 3.6 0.6 0 1 2.6 1 5.8 0 5.2 0.3 5.9 3.2 8.3 2.7 2.3 3 2.9 1.9 4.2 -1.8 2.3 -0.3 8.4 2.9 11.7 1.5 1.6 3 3.4 3.3 4.2 0.3 0.9 1.2 0.6 3.1 -1.2 2.3 -2.1 2.9 -2.2 3.6 -1 0.5 0.8 1 2.5 1 3.6 0 1.7 -0.5 2 -2.4 1.7 -2 -0.4 -2.5 0 -3 2.4 -0.4 1.5 -1.4 3.7 -2.4 4.9 l -1.7 2.1 -2.8 -3.1 z "/>
  <path d="M 286.2 398.3 c -0.1 -0.6 -2.2 -3.8 -4.7 -7.1 -2.5 -3.3 -4.5 -6.8 -4.5 -7.8 0 -2.6 -5.6 -10.9 -6.4 -9.5 -1.3 2.1 -2.5 1.1 -3.1 -2.6 -1 -6 -2.6 -10.6 -4.6 -13.1 -0.9 -1.2 -2 -4 -2.4 -6.2 -0.6 -3.5 -1 -4 -3.3 -4 -1.5 0 -5.5 -1 -8.9 -2.2 -4.9 -1.7 -6.3 -2.6 -6.3 -4.1 0 -1.9 0.5 -2 12.7 -1.3 13.1 0.7 16.3 1.8 16.3 5.5 0 0.9 2.2 8.4 5 16.6 2.7 8.3 5 15.8 5 16.9 0 1 1.4 4.6 3.1 7.9 2 4 2.9 7 2.6 9.1 -0.2 1.7 -0.5 2.6 -0.5 1.9 z "/>
  <path d="M 211.5 340 c -1.2 -2 -8.2 -4.9 -10.4 -4.3 -1.6 0.4 -2.7 -0.1 -3.8 -1.6 -2.3 -3.3 -7.2 -2.5 -9.8 1.6 -1.9 3.1 -5.5 4.5 -5.5 2.3 0 -2.6 16.9 -17 20 -17 1 0 3.3 1.7 5 3.9 2.8 3.4 14 10.1 17 10.1 0.5 0 1 0.7 1 1.5 0 1.1 -1.2 1.5 -4.4 1.5 -2.6 0 -4.8 0.6 -5.6 1.5 -1.5 1.7 -2.6 1.9 -3.5 0.5 z "/>
  <path d="M 69.1 194.6 c -0.7 -0.8 -3.4 -1.7 -6.1 -2.1 -2.9 -0.4 -5.1 -1.3 -5.4 -2.2 -0.8 -1.9 0.4 -9.2 1.5 -9.9 0.5 -0.3 0.9 -2 0.9 -3.7 0 -3.8 1 -5.5 4 -7 1.3 -0.7 3.1 -2.7 4.1 -4.6 1 -1.8 2.7 -4.3 3.8 -5.5 1.2 -1.2 2.1 -2.7 2.1 -3.3 0 -1 2.7 -1.5 14.4 -3 4.3 -0.5 5.1 -0.3 6.7 1.8 1.2 1.5 1.9 4.1 1.9 7.2 0 4 -0.4 4.9 -2.4 5.8 -2.8 1.3 -4.6 4.8 -4.6 8.9 0 4.6 -2 7.8 -5.5 9 -3.9 1.3 -6.1 3.6 -7 7.3 -0.6 2.2 -1.3 2.7 -4 2.7 -1.8 0 -3.8 -0.6 -4.4 -1.4 z "/>
 </g>
 <g fill="#f4870f">
  <path d="M 374.4 383.5 c -4.2 -4 -5.9 -7.4 -4.5 -8.8 1.4 -1.4 1.4 -5.7 0.1 -5.7 -0.5 0 -1 -2 -1 -4.5 0 -3.9 0.3 -4.6 3 -6 1.6 -0.8 5.2 -4.3 8 -7.6 2.8 -3.4 6.3 -7.1 7.8 -8.4 1.5 -1.2 4.5 -4.8 6.7 -7.9 2.2 -3 4.4 -5.6 4.9 -5.6 1.5 0 -0.1 18.4 -1.8 21.9 -1.2 2.3 -1.4 3.6 -0.6 5 0.5 1.1 1 3.6 1 5.6 0 2.2 0.8 4.7 2 6.2 3.1 4 2.6 6.7 -1.5 8.1 -1.8 0.7 -4.5 2.6 -5.8 4.2 -2 2.3 -3.5 3 -7.8 3.4 -2.9 0.3 -5.8 1.1 -6.4 1.8 -0.8 1 -1.7 0.7 -4.1 -1.7 z "/>
  <path d="M 447.9 306.1 c -1.3 -2.3 -2.5 -2.9 -6.3 -3.3 -2.6 -0.3 -5 -0.8 -5.3 -1.1 -0.9 -0.9 -1.6 -13.3 -0.9 -16.1 0.5 -1.9 2.4 -3.4 8.2 -6.2 6.1 -3 7.9 -4.4 9 -7 1.1 -2.6 2 -3.4 3.9 -3.4 1.7 0 2.5 0.6 2.6 1.8 1.3 18.1 0.7 22.3 -3.9 32.5 -3 6.4 -4.9 7.1 -7.3 2.8 z "/>
  <path d="M 131.8 283.2 c -3.3 -3.6 -9.7 -9.1 -11.9 -10.2 -1.3 -0.7 -4.3 -3 -6.6 -5.1 -2.4 -2.2 -5.1 -3.9 -6.2 -3.9 -1.5 0 -1.9 -0.8 -1.9 -4.4 -0.1 -2.8 0.4 -4.9 1.3 -5.6 2.4 -2 1.7 -3.3 -0.7 -1.6 -2.7 1.9 -5.7 2 -8 0.2 -2.2 -1.6 -2.3 -2.6 -0.3 -2.6 0.9 0 3.5 -1.8 5.9 -4 4.1 -3.8 4.6 -4 10.8 -4 3.5 0 6.9 0.5 7.5 1.1 0.8 0.8 1.9 0.6 4.1 -0.5 1.7 -0.9 4.7 -1.6 6.6 -1.6 4.5 0 6.1 2.6 5.2 8.7 -0.4 3 -0.1 5.4 0.9 7.3 2.3 4.4 2 13.6 -0.5 15.7 -1.1 1 -2 2.4 -2 3.3 0 0.8 -0.6 3.2 -1.3 5.2 -1.2 3.5 -1.4 3.6 -2.9 2 z "/>
  <path d="M 61.6 218.6 c -2.4 -3.7 -1.1 -8.1 3 -10.7 6.4 -3.9 3 -5.5 -3.8 -1.7 -3 1.7 -4.3 2 -5.6 1.1 -2.6 -1.7 -2 -11.6 1.1 -18.4 l 2.5 -5.4 1.2 2.7 c 1.3 2.7 6.6 4.4 8.4 2.7 1.4 -1.3 2.6 -1.1 2.6 0.5 0 0.7 0.7 1.9 1.5 2.6 1.2 1 1.5 1 1.5 -0.3 0 -0.9 0.5 -1.9 1 -2.2 0.6 -0.4 1 1 1 3.4 0 3.5 -0.3 4.1 -2 4.1 -2 0 -2 0.1 -0.5 3 0.9 1.7 2 3 2.5 3 0.6 0 1 1.7 1 3.9 0 3 -0.9 4.9 -4.2 9 -4.8 5.9 -8.5 6.8 -11.2 2.7 z "/>
  <path d="M 430 220.1 c -5.9 -1 -10.1 -5.1 -11.2 -10.7 -2 -10.1 -2.1 -14.2 -0.4 -16.6 0.9 -1.2 1.6 -3.2 1.6 -4.3 0 -5.9 17.3 -13.5 20.8 -9.2 0.6 0.6 2.2 4.2 3.5 7.9 1.4 3.6 3.3 7.7 4.1 9.1 1.2 1.7 1.6 4.5 1.5 9.8 -0.1 4.1 0.1 8.5 0.6 9.8 0.7 2.3 0.6 2.4 -3.4 1.7 -3.7 -0.6 -4.1 -0.4 -4.1 1.4 0 1.7 -0.6 2 -4.7 1.9 -2.7 -0.1 -6.4 -0.5 -8.3 -0.8 z "/>
  <path d="M 424.7 168 c -4.5 -2.8 -4.7 -3.2 -4.7 -7.5 0 -6.1 -1.4 -8.5 -4.8 -8.5 -4.3 0 -7.1 -2.6 -7.8 -7.2 -0.5 -2.8 -1.3 -4.2 -2.5 -4.5 -1.5 -0.4 -1.9 -1.5 -2 -4.7 0 -2.2 -0.3 -8.5 -0.5 -13.9 l -0.5 -9.8 2.8 1.9 c 1.5 1 5.1 3.4 7.9 5.2 2.8 1.8 5.5 4 6 5 0.5 0.9 2.1 3.5 3.7 5.7 1.5 2.1 3.3 6.1 4.1 8.9 0.8 2.7 2.6 8.5 4.1 12.9 1.5 4.4 3.5 10.6 4.5 13.8 l 1.8 5.7 -3.7 0 c -2.4 0 -5.4 -1.1 -8.4 -3 z "/>
  <path d="M 172.1 80.2 c -3.4 -2.3 -13 -4.2 -15.9 -3.1 -2.6 1 -9.2 1.2 -9.2 0.3 0 -2 20.2 -15.3 26 -17.2 2.5 -0.7 6.6 -1.3 9.1 -1.3 2.5 0 6 -0.4 7.7 -0.9 3 -0.8 3.2 -0.7 3.2 1.6 0 2.8 -1.7 6.5 -3.4 7.6 -0.6 0.4 -2.2 0.8 -3.6 0.8 -2.4 0 -2.5 0.2 -2.1 5.1 0.2 3.7 -0.1 5.5 -1.5 7 -2.1 2.4 -7 2.4 -10.3 0.1 z "/>
 </g>
 <g fill="#f7950a">
  <path d="M 409.5 377.6 c -1.6 -2.9 -2.2 -3.3 -4.1 -2.6 -1.2 0.5 -3 0.6 -4.1 0.4 -2.5 -0.7 -5.6 -6 -6.5 -11.4 -2 -11.8 -2 -12.7 -0.3 -15.9 0.9 -1.8 1.3 -4 1 -5.1 -0.3 -1 -0.1 -2.1 0.5 -2.5 0.5 -0.3 1 -2.4 1 -4.6 0 -2.5 1.3 -6.7 3.5 -11.2 3.4 -7.2 3.4 -7.2 3.7 -23.2 l 0.2 -16 -7.9 -15.7 c -7.3 -14.6 -7.7 -15.9 -6.3 -17.5 0.9 -1 1.9 -3 2.3 -4.5 0.4 -1.5 1.3 -2.9 1.9 -3.1 0.7 -0.3 1.6 -2 2 -3.7 0.3 -1.8 2.1 -4.7 4 -6.6 2.7 -2.7 4.2 -3.4 7.4 -3.4 2.9 0 4.2 -0.5 4.6 -1.7 1.8 -4.8 3.2 -6.3 5.6 -6.3 3.4 0 5 -1.7 5 -5.5 l 0 -3 -12.1 0 c -10.3 0 -12.2 -0.3 -13.3 -1.7 -0.7 -1 -1.8 -1.8 -2.4 -1.8 -2.2 0 -6.2 -6.1 -6.2 -9.5 0 -3.8 1.8 -8.6 3.7 -9.8 0.7 -0.4 1.3 -1.7 1.3 -2.8 0 -1.2 1 -2.3 2.5 -2.9 1.4 -0.5 3 -2.1 3.5 -3.5 0.6 -1.7 2 -2.7 3.9 -3.1 2.9 -0.6 2.9 -0.7 1.4 -3 -2 -3.2 -1.4 -13.4 1 -15.8 0.9 -1 1.7 -2.4 1.7 -3.2 0 -0.8 1.1 -3.2 2.5 -5.4 2.3 -3.6 2.7 -3.8 6.2 -3.3 4.9 0.7 6.3 2.6 6.3 8.5 0 4.7 0.2 4.9 4.7 7.8 2.6 1.7 5.4 3 6.3 3 1.1 0 3.1 3 5.8 8.8 5.2 10.9 5.3 12.7 0.3 7.8 l -3.8 -3.7 -4.4 2.2 c -5.8 2.9 -8.9 5.8 -8.9 8.2 0 1 -0.8 3.2 -1.7 4.8 -1.7 2.8 -1.7 3.2 -0.2 5.8 0.9 1.6 1.4 4 1.2 5.4 -0.4 2.1 0.3 3.3 3.3 6.1 2.2 2 4.9 3.6 6 3.6 1.2 0 3.6 0.3 5.3 0.6 2.7 0.6 3.1 0.4 3.1 -1.5 0 -1.1 0.3 -2.2 0.8 -2.2 8.9 -1.3 10 -0.2 11.7 12.3 0.7 5.1 1.7 10.4 2.3 11.8 2.7 6.6 5.4 34 3.2 34 -0.5 0 -1.6 1.5 -2.3 3.3 -0.8 1.7 -2.7 3.9 -4.3 4.7 -1.6 0.8 -4 2.1 -5.3 2.9 -1.3 0.9 -3.1 1.6 -4 1.8 -2.5 0.3 -3.9 3.1 -3.6 7.1 0.2 2 0.4 4.4 0.4 5.3 0.1 2 3.2 3 5.5 1.7 3.1 -1.7 8.6 5.2 8.6 10.6 0 2.4 -8.1 18.4 -9.9 19.6 -1.6 1 -6.1 11.8 -6.1 14.6 0 6.3 -7.7 18.6 -18.9 30.2 -2.8 2.9 -5.1 5.7 -5.1 6.3 0 2 -1.8 0.7 -3.5 -2.5 z "/>
  <path d="M 265 372.5 c -1.3 -1.4 -3.4 -2.5 -4.7 -2.5 -2.8 0 -7.5 -2.3 -12 -5.9 -3.9 -3 -4 -3.7 -1.2 -4.4 1.6 -0.4 1.9 -1 1.4 -2.9 -0.9 -3 -6.6 -8.9 -9.1 -9.2 -1.2 -0.2 -2 -1.2 -2.2 -2.8 -0.2 -2 0.3 -2.8 2.7 -3.8 2.7 -1.1 4 -0.9 10.3 1.4 4 1.4 8.6 2.7 10.3 2.8 2.6 0.3 3 0.7 3.2 3.8 0.2 1.9 1.1 4.6 2.1 6 2.6 3.4 4.1 8.6 4.4 14.5 0.4 5.9 -1.5 7 -5.2 3 z "/>
  <path d="M 161.9 315.9 c -2.2 -1.7 -2.9 -1.9 -5.2 -0.8 -4.2 1.9 -8 -1.3 -8.7 -7.3 -0.6 -4.9 -2.4 -7.8 -4.7 -7.8 -0.8 0 -2.7 -0.8 -4.1 -1.9 -1.5 -1 -3.6 -2 -4.6 -2.2 -1.1 -0.2 -1.9 -0.7 -1.8 -1.2 0.1 -0.4 0.4 -2.3 0.8 -4.3 0.5 -2.5 0.1 -4.5 -1.2 -6.9 -1.5 -2.8 -1.6 -3.8 -0.6 -6 0.7 -1.4 1.2 -3.4 1.2 -4.3 0 -1 0.9 -2.5 2 -3.5 1.1 -0.9 2 -2.8 2 -4.2 0 -3.6 -2.6 -8.2 -5 -9 -2 -0.6 -2.8 -2.5 -1.1 -2.5 0.5 0 1.5 -1.4 2.4 -3.2 1.7 -3.6 0.6 -7.4 -1.9 -6.4 -1 0.4 -1.4 -0.2 -1.4 -1.9 0 -2.4 0.3 -2.5 6.4 -2.5 4.6 0 7 0.5 8.6 1.8 2.6 2.1 6.1 10.9 6.7 17 0.3 2.3 1 4.2 1.7 4.2 3 0.1 5.5 4 7.1 11.1 0.9 4.1 2.3 9.2 3 11.4 0.8 2.2 1.7 5.8 2.1 8 0.4 2.2 2.2 8.3 4 13.4 1.8 5.2 3 9.9 2.8 10.3 -1 1.6 -7.9 0.7 -10.5 -1.3 z "/>
  <path d="M 180.7 74.7 c 0.3 -1.7 -0.2 -2.8 -2.1 -4.1 -1.4 -0.9 -2.6 -2.5 -2.6 -3.6 0 -1.7 0.7 -2 4.9 -2 4.7 0 8.1 -1.7 8.1 -4 0 -1.8 3.3 -4 6.1 -4 1.6 0 2.9 -0.4 2.9 -0.9 0 -2.1 6.1 -3.2 16.3 -2.9 10.2 0.3 10.7 0.4 10.7 2.5 0 1.3 -0.8 2.4 -2.1 2.8 -1.1 0.4 -2.4 1.8 -2.9 3.1 -0.7 1.9 -1.7 2.4 -4.2 2.4 -2.3 0 -4.7 1.1 -7.7 3.5 -3.7 2.9 -5.2 3.5 -9.3 3.5 -4.1 0 -5 0.3 -5.9 2.4 -1.1 2.4 -4.4 3.6 -9.9 3.6 -2.3 0 -2.7 -0.3 -2.3 -2.3 z "/>
 </g>
 <g fill="#f19721">
  <path d="M 230.7 346.5 c -5.4 -0.8 -8.4 -1.8 -10 -3.3 -1.4 -1.3 -3.6 -2.2 -5.5 -2.2 -3.6 0 -5.1 -2.2 -3.2 -4.5 1.9 -2.3 10.1 -1.8 22.2 1.2 11 2.8 12.8 4.2 8.6 6.4 -1.3 0.7 -2.7 1.7 -3.3 2.4 -0.7 0.8 -3 0.8 -8.8 0 z "/>
  <path d="M 394 248.9 c -0.8 -0.4 -2.7 -1 -4.1 -1.3 -2.5 -0.5 -2.7 -1 -3.3 -8.5 -0.5 -5.1 -0.3 -8.7 0.3 -10 0.6 -1.1 1.1 -3 1.1 -4.3 0 -1.3 0.5 -2.9 1.1 -3.5 0.7 -0.7 0.3 -1.2 -1.6 -1.5 -2.9 -0.6 -6.5 3 -6.5 6.4 0 4.1 -2.6 0.8 -5.8 -7.3 -1.8 -4.6 -4.3 -10.6 -5.7 -13.4 -1.3 -2.7 -2.9 -7.2 -3.5 -9.9 -1.6 -7.2 -2.9 -9.2 -13.7 -20.2 -10.9 -11.2 -17.2 -15.8 -23.8 -17.5 -5.6 -1.4 -5.8 -3.4 -0.6 -5 5.6 -1.7 10.6 -0.5 13.1 3.1 1.2 1.7 2.7 3 3.3 3 0.7 0 3.9 2.5 7.1 5.6 3.4 3.2 7.6 6.2 10 7 5 1.7 9.6 5.7 9.6 8.4 0 1.2 1.3 2.5 3.8 3.6 2 1 4.1 2.4 4.5 3.1 1.2 1.9 3.5 1.6 7 -1.1 1.8 -1.3 4.2 -2.7 5.5 -3.1 2.3 -0.7 3 -2.9 1.2 -4 -0.5 -0.3 -1 -2.2 -1 -4.1 0 -3.4 -0.1 -3.4 -4.4 -3.4 -3.1 0 -4.6 -0.5 -5 -1.6 -1.1 -3 -0.6 -6.6 1.4 -9.1 1.1 -1.4 2 -3.4 2 -4.5 0 -1.1 1.2 -3.4 2.6 -5.3 1.4 -1.8 2.5 -4.2 2.4 -5.2 -0.1 -1 -0.3 -5 -0.6 -8.8 -0.5 -6.2 -0.3 -7.3 1.5 -8.9 2.5 -2.2 2.7 -4.9 0.6 -6.6 -0.8 -0.7 -1.5 -2.8 -1.5 -4.6 0 -3.5 2.1 -11.4 3 -11.4 0.3 0 3.1 2.4 6.2 5.4 5.9 5.5 7.9 9.7 6.1 12.6 -0.8 1.1 -0.7 2.6 0.3 4.9 1 2.3 1.1 3.8 0.4 5.1 -1.5 2.7 -1.3 3.4 1.2 4.5 1.7 0.7 2.3 1.9 2.4 4.5 0.2 4.1 3.3 7 7.5 7 2.2 0 3.2 0.7 4.1 2.5 1.4 3.1 0.4 4.3 -1.9 2.3 -3.6 -3 -4.2 -2.9 -6.8 1.1 -1.4 2.3 -2.5 4.7 -2.5 5.5 0 0.8 -0.7 2.2 -1.6 3 -0.8 0.9 -1.8 3.2 -2.1 5.1 -0.5 2.9 -0.1 3.9 2.3 6.2 2.1 2.1 2.8 3.6 2.6 5.7 -0.3 2.4 -0.7 2.7 -3 2.3 -3.5 -0.7 -5.2 0.1 -6.3 3 -0.5 1.3 -2 2.8 -3.4 3.3 -1.5 0.6 -2.5 1.7 -2.5 2.9 0 1.1 -0.6 2.4 -1.3 2.8 -0.7 0.4 -1.8 2.1 -2.5 3.7 -1.2 2.6 -1.1 3.3 0.5 5.5 1.1 1.3 2.8 2.9 3.9 3.5 1 0.6 2.2 1.5 2.6 2 1 1.5 3.7 1.9 13.3 2.1 10.4 0.1 12.5 0.8 12.5 4.1 0 1.3 0.5 2.4 1 2.4 0.6 0 1 0.8 1 1.8 0 2.4 -6.5 8.8 -7.4 7.3 -1 -1.5 -2.6 -1.4 -2.6 0.3 0 0.7 -0.6 1.9 -1.4 2.6 -0.8 0.6 -1.6 2.1 -1.8 3.3 -0.3 2.2 -1.3 2.4 -5.5 1.2 -1.8 -0.6 -3.1 0.1 -5.7 2.7 -1.9 1.9 -3.8 4.8 -4.2 6.4 -0.9 3.8 -3.5 6.3 -5.4 5.3 z "/>
  <path d="M 61 243.7 c -3.8 -1.4 -4 -2.6 -1.6 -8.2 3 -6.8 4.5 -12.9 3.5 -14.6 -1.4 -2.8 -1.1 -4.1 1.1 -3.7 1.3 0.2 3.2 -1.2 6 -4.6 4 -4.8 4.8 -6.6 3.1 -6.6 -0.5 0 -1.9 -1.7 -3.1 -3.7 -2.5 -4.3 -2 -8 1.2 -8.5 1.4 -0.2 2.5 -1.4 3.1 -3.3 1.3 -4.1 3.4 -6.2 7.2 -7.5 4.2 -1.4 6.3 -5.5 4 -8 -1.5 -1.7 -1.4 -2 0.9 -4.3 1.4 -1.5 2.6 -3 2.6 -3.5 0 -0.5 1.1 -1.4 2.5 -2 2.9 -1.4 3.2 -3.8 0.7 -7 -1.7 -2.2 -2.2 -2.3 -5.8 -1.3 -2.1 0.6 -5.1 1.1 -6.6 1.1 -1.8 0 -3.3 0.9 -4.7 2.9 -2.2 3 -6.1 4.8 -6.1 2.7 0 -0.7 1.1 -2.3 2.5 -3.6 1.5 -1.4 2.5 -3.5 2.5 -5.2 0 -2.9 2.7 -9.1 6.2 -14.1 2.4 -3.3 6.1 -3.5 12.4 -0.6 4.8 2.1 6.5 4.8 7.9 12.3 0.9 4.4 -1.2 14.6 -2.9 14.6 -2.2 0 -4.1 4.7 -4.8 12 -1.4 15.6 -2.1 18.5 -4.4 18.8 -3.3 0.5 -6.5 4.6 -7.1 9.2 -0.4 2.6 -1.6 5.3 -3.4 7.2 l -2.7 3.1 2.9 2.4 c 1.6 1.4 2.9 2.9 2.9 3.4 0 0.6 1.2 2.2 2.6 3.7 2.3 2.5 2.5 3.2 2 8.7 -0.5 6.8 -1.4 9.7 -2.6 9 -1.2 -0.7 -13 -0.8 -16 -0.1 -1.4 0.3 -4.1 0 -6 -0.7 z "/>
 </g>
 <g fill="#e18545">
  <path d="M 462.6 207.8 c -0.8 -2.9 -1.9 -7.3 -2.5 -9.8 -6.7 -30.2 -25.3 -63.8 -51.9 -93.7 -4 -4.6 -6.9 -8.3 -6.4 -8.3 2.2 0 18.7 19.2 28.4 32.8 15 21.2 18 26.2 21.1 34.9 0.8 2.1 4 10.8 7.2 19.3 4.2 11.5 5.8 17.4 6.2 22.8 0.3 3.9 0.3 7.2 0 7.2 -0.3 0 -1.2 -2.4 -2.1 -5.2 z "/>
 </g>
 <g fill="#f5aa1b">
  <path d="M 65.7 226.5 c 0.4 -2.7 1.1 -5.4 1.8 -6 0.6 -0.5 2.9 -3.4 5 -6.2 2.2 -2.9 4.3 -5.3 4.7 -5.3 0.4 0 0.8 -0.7 0.8 -1.6 0 -1.1 0.5 -1.4 1.6 -1 0.9 0.3 2.8 -0.1 4.3 -1 3.7 -2.2 13.1 -1.2 15.7 1.7 0.9 1 2.3 1.9 3.1 1.9 0.9 0 1.3 1.5 1.3 5.3 0 4.4 -0.4 5.8 -2.5 7.7 -1.4 1.3 -2.5 2.9 -2.5 3.6 0 2.5 -5.6 5.4 -10.4 5.4 -2.5 0 -4.6 -0.4 -4.6 -1 0 -0.5 -0.7 -1 -1.6 -1 -0.8 0 -3.2 -1.8 -5.2 -4 l -3.6 -4.1 -3.1 3.4 c -1.6 1.9 -3.5 4.3 -4.2 5.3 -1 1.6 -1.1 1 -0.6 -3.1 z "/>
  <path d="M 110.2 193.8 c -1.4 -1.4 -1.6 -7.4 -0.3 -8.2 0.5 -0.4 0 -2.9 -1.1 -5.9 -1.1 -2.8 -2.4 -6.2 -2.9 -7.4 -0.5 -1.3 -2.6 -3 -4.9 -3.9 -3.3 -1.3 -4 -2.1 -4 -4.4 0 -3.8 5.8 -10 9.3 -10 3.4 0 10.9 7.8 15.7 16.3 6.7 12 7.5 13.2 13.5 18.9 l 6 5.8 -3.9 0 c -4.9 0 -11.6 -2.9 -11.6 -4.9 0 -1.1 -0.5 -0.9 -1.6 0.7 -0.8 1.2 -2.4 2.2 -3.5 2.2 -1 0 -1.9 0.5 -1.9 1 0 1.4 -7.4 1.2 -8.8 -0.2 z "/>
  <path d="M 368 183 c 0 -2.6 -4.6 -6.7 -9.6 -8.4 -2.4 -0.8 -6.6 -3.8 -10 -7 -3.2 -3.1 -6.3 -5.6 -6.9 -5.6 -0.5 0 -2.2 -1.4 -3.6 -3.1 -2 -2.4 -3.2 -3.1 -5.5 -2.9 -8.4 0.9 -21.5 -0.1 -27.5 -2 -9.1 -2.9 -22.7 -3.6 -31.4 -1.6 -11 2.5 -15.9 3.8 -17.7 4.7 -1 0.5 -3.1 0.9 -4.8 0.9 l -3 0 0 -7.5 c 0 -4.1 0.1 -7.5 0.3 -7.6 10.5 -2.7 31.6 -4.1 35.2 -2.2 2.8 1.4 17.8 -0.3 22.4 -2.6 2.8 -1.5 5.8 -1.9 13.9 -1.8 l 10.3 0.1 2.7 -3.2 c 1.5 -1.8 3.5 -3.2 4.5 -3.2 1.9 0 7.6 -5.8 7.7 -7.7 0 -0.7 0.7 -1.3 1.6 -1.3 0.9 0 2.9 -1 4.6 -2.1 2.3 -1.7 3.9 -2 7.4 -1.6 5.7 0.6 15.5 5.6 17.1 8.7 1 2 1.2 1.7 2.2 -3.6 0.6 -3.3 1.8 -7.2 2.6 -8.7 0.8 -1.6 1.5 -4.1 1.5 -5.7 0 -1.6 0.7 -3 1.5 -3.4 0.8 -0.3 1.5 -1.2 1.5 -2 0 -2.9 2 -2.7 6.5 0.5 4.8 3.4 5.5 5.6 3.3 10.3 -0.9 2.1 -0.8 2.9 0.5 4.4 2.5 2.7 2.3 10.4 -0.3 12.7 -2.6 2.3 -2.6 7.1 0.1 11.4 1.8 3 1.9 3.5 0.5 5 -0.9 1 -1.6 2.1 -1.6 2.6 0 0.4 -1.1 2.3 -2.5 4.1 -1.4 1.8 -2.5 4.1 -2.5 5.2 0 1.1 -0.8 3 -1.9 4.3 -2.3 3 -1.8 5.3 0.8 3.7 1.5 -0.9 2.6 -0.7 5.1 0.8 6.3 3.7 4.7 6.4 -4.4 7.3 -4.7 0.5 -7.2 1.3 -8.9 2.9 -1.3 1.2 -3.5 2.2 -5 2.2 -2.2 0 -2.7 0.5 -2.7 2.5 0 1.8 -0.5 2.5 -2 2.5 -1.3 0 -2 -0.7 -2 -2 z "/>
  <path d="M 334.8 111.8 c -2 -0.7 -2.8 -1.7 -2.8 -3.4 0 -1.9 -0.5 -2.4 -2.4 -2.4 -1.4 0 -2.8 -0.4 -3.1 -1 -0.3 -0.5 -1.7 -1 -3.1 -1 -2 0 -2.4 -0.5 -2.4 -3 0 -3 1 -4.8 3.9 -7.3 0.8 -0.7 3.1 -2.8 5.1 -4.8 2 -2 4.6 -4 5.7 -4.3 1.1 -0.4 2.8 -1.5 3.8 -2.6 2.6 -2.9 8.3 -2.7 9.4 0.3 0.5 1.3 1.6 2.9 2.5 3.6 1.7 1.4 2.1 6.5 1 14.4 -0.5 3.4 -1.2 4.7 -3 5.6 -1.3 0.6 -2.4 1.7 -2.4 2.5 0 4 -6 5.7 -12.2 3.4 z "/>
 </g>
 <g fill="#f1a82e">
  <path d="M 317.3 312.2 c -0.7 -3.1 -1.2 -9 -1.2 -13 0 -5.2 -0.4 -7.7 -1.5 -8.8 -1.9 -1.8 -2.1 -9.5 -0.4 -11.2 0.7 -0.7 2.2 -1.2 3.5 -1.2 1.6 0 2.3 -0.6 2.3 -2 0 -1.5 0.7 -2 2.4 -2 3.7 0 6.6 -4.4 6.6 -9.8 0 -3.1 0.5 -4.9 1.7 -5.7 2.6 -1.9 1.8 -10.1 -1.3 -13.8 -1.7 -2.1 -2.4 -4.1 -2.4 -7.3 0 -3.1 -0.5 -4.6 -1.5 -5.1 -0.9 -0.3 -2.4 -2.2 -3.5 -4.2 -1 -2 -2.8 -4.4 -3.9 -5.3 -2 -1.7 -3.1 -7.9 -1.3 -7.7 0.4 0 3.6 1.4 7.2 3.2 5.7 2.8 6.8 3.8 8.8 8.1 3.3 7 7.2 22.2 7.2 28.2 0 2.8 -1.1 8.6 -2.4 13 -1.3 4.3 -2.7 10.4 -3.1 13.4 -0.8 6.5 -4.9 20.2 -7.3 24.6 -2.4 4.5 -7 11.1 -8 11.8 -0.4 0.2 -1.3 -2.1 -1.9 -5.2 z "/>
  <path d="M 155 269 c -1.9 -1.6 -4.7 -3.2 -6.2 -3.5 -3.3 -0.8 -3.3 -0.8 -1.3 -3.9 1.4 -2.1 1.4 -2.7 -0.5 -7 -1.1 -2.6 -2 -5.4 -2 -6.1 0 -2.2 -5 -5.5 -8.4 -5.5 -1.7 0 -5.5 1.4 -8.5 3 -6.4 3.5 -7.2 3.6 -8.8 1 -2.2 -3.4 -8 -2.4 -13.1 2.3 -3.7 3.3 -4.9 3.8 -7.4 3.3 -1.7 -0.3 -4.6 -0.6 -6.4 -0.6 -2.5 0 -4 -0.7 -5.7 -2.7 -1.2 -1.4 -3 -3.5 -4 -4.5 -1.6 -1.7 -1.7 -2.6 -0.8 -6.9 1 -4.3 0.9 -5.4 -0.6 -7.4 -1 -1.4 -2.1 -2.5 -2.5 -2.5 -0.5 0 -0.8 -0.5 -0.8 -1.2 0 -0.6 -0.7 -2 -1.7 -3 -0.9 -1 -1.1 -1.8 -0.5 -1.8 1.5 0 10.5 4.3 11.3 5.4 0.4 0.5 1.7 0.6 3 0.3 2.5 -0.7 4.8 1.5 4.9 4.6 0 0.9 0.6 1.7 1.4 1.7 0.7 0 2.5 0.9 4 2.1 2.1 1.6 4.2 2.1 9.6 2.2 3.9 0.1 7 -0.1 7 -0.5 0 -0.5 6.1 -0.7 13.5 -0.5 7.4 0.1 13.5 -0.1 13.5 -0.5 0 -1.7 8.8 -0.8 11.1 1.1 2.3 1.8 2.3 2 1 8.4 -1.2 6 -1.1 7.2 0.7 12.9 2.7 8.4 3.5 12.8 2.5 12.8 -0.4 0 -2.4 -1.4 -4.3 -3 z "/>
  <path d="M 386.1 247.8 c -6.1 -14.7 -7.1 -17.5 -7.8 -22.4 -0.5 -4.2 -0.4 -4.6 3.7 -8.5 l 4.3 -4.2 1.6 2.2 c 1 1.3 2 1.8 2.6 1.3 1.5 -1.4 10.3 -2.3 11 -1.2 0.3 0.6 1.5 1 2.5 1 1.3 0 1.7 0.5 1.4 1.5 -0.4 0.8 -1.7 1.5 -3 1.5 -8.4 0 -12.7 6.6 -12.4 19 0.1 5.8 1.2 7.3 4.7 6.7 2.3 -0.4 4.2 2.1 2.4 3.2 -0.5 0.4 -1.2 1.8 -1.6 3.3 -0.4 1.4 -1.7 3.6 -2.9 4.7 l -2.2 2.1 -4.3 -10.2 z "/>
  <path d="M 87.6 190.6 c 0.1 -2.4 0.5 -5 1 -5.7 0.4 -0.7 0.9 -4.6 1 -8.5 0.2 -7.2 2.3 -12.3 4.9 -12.4 0.6 0 1.6 -1.9 2.2 -4.2 0.9 -3.5 0.8 -5.1 -0.5 -9.3 -1.5 -4.3 -2.3 -5.3 -6.1 -7.2 -4.4 -2.2 -7 -1.9 -8.6 0.7 -0.9 1.5 -2.5 1.2 -2.5 -0.4 0 -2.4 14.1 -20.6 16 -20.6 0.4 0 1.9 2.4 3.5 5.3 1.5 2.8 3.9 6.6 5.2 8.4 2.7 3.7 10.2 17.5 13.4 24.8 0.7 1.7 1.5 3.3 1.7 3.8 0.2 0.4 -0.7 0.7 -2 0.7 -1.4 0 -3.9 -1.7 -6.4 -4.3 l -4.2 -4.4 -2.9 3.3 c -2.8 3.1 -2.8 3.4 -1.1 4 2.6 0.8 1.8 3.7 -1.2 4.4 -2.3 0.5 -2.6 1.2 -3.5 8.6 -1.2 9.4 -4.8 17.4 -8 17.4 -1.8 0 -2 -0.6 -1.9 -4.4 z "/>
  <path d="M 377.3 190.3 c -1 -1 -3.5 -2.6 -5.5 -3.6 -3.2 -1.5 -3.5 -2 -3.4 -5.7 0.1 -3.7 0.3 -4 2.9 -4 1.6 0 4.4 -1.3 6.5 -2.9 3.2 -2.5 4.5 -2.9 9 -2.8 4.1 0.2 5.7 -0.2 6.6 -1.5 1.2 -1.7 1.4 -1.7 2.9 0 1.3 1.5 1.3 1.9 0.1 3 -1.2 1.1 -1.2 1.6 0 3.5 2 3.1 1 8.5 -1.8 9.3 -1.1 0.3 -3.5 1.7 -5.2 2.9 -4.5 3.4 -9.7 4.2 -12.1 1.8 z "/>
  <path d="M 335 133.1 c 0 -1.7 -0.4 -3.2 -0.9 -3.5 -1.5 -0.9 -2.5 -12.6 -1.2 -13.9 1.4 -1.4 -1.4 -4.7 -4.1 -4.7 -1 0 -3.6 -0.6 -5.9 -1.2 l -4 -1.3 0.3 -5 c 0.3 -4.8 0.4 -5 3.6 -5.3 3.1 -0.3 4.5 1.1 2 2.1 -0.7 0.3 -0.1 0.6 1.4 0.6 1.5 0.1 3 0.6 3.4 1.2 0.3 0.6 1.7 0.9 3 0.6 2.1 -0.4 2.4 0 2.4 2.3 0 3.6 5 5.8 7.5 3.4 0.8 -0.9 1.5 -2.2 1.5 -3 0 -0.8 1.1 -1.9 2.5 -2.6 1.9 -0.8 2.2 -1.5 1.5 -2.8 -0.7 -1.2 -0.5 -2.1 0.4 -2.9 1.8 -1.5 1.8 -6.7 -0.1 -8.2 -0.8 -0.7 -1.9 -2.4 -2.4 -3.7 -0.9 -2.4 -1 -2.4 -2.9 -0.7 -2 1.8 -2 1.7 -2 -4.7 0 -5.8 0.3 -6.7 2.4 -8.1 1.3 -0.9 2.6 -1.3 3 -1 0.3 0.3 3 1.6 5.9 2.8 6.9 2.8 41 29.5 37.7 29.5 -0.6 0 -1.5 1.1 -2 2.5 -0.5 1.4 -1.5 2.5 -2.2 2.5 -0.8 0.1 -0.5 0.7 0.6 1.5 1.8 1.4 1.4 1.5 -5 1.5 -4.5 0.1 -7.6 0.6 -8.8 1.5 -1.1 0.8 -3.9 1.5 -6.3 1.5 -4.7 0 -4.5 0.2 -7.8 -9 -1.6 -4.2 -3.5 -5.1 -3.5 -1.7 0 1.4 -0.7 3.8 -1.4 5.4 -2.5 4.8 -3 6.7 -2.7 11.1 0.2 3.3 -0.1 4.2 -1.3 4.2 -0.9 0 -1.6 0.6 -1.6 1.3 0 0.8 -1.1 2.4 -2.5 3.7 -1.4 1.3 -2.3 3 -2 3.8 0.4 1.1 -0.1 1.3 -2.5 0.8 -2.2 -0.4 -3.2 -0.1 -3.6 0.9 -1 2.5 -2.4 1.7 -2.4 -1.4 z "/>
  <path d="M 139 89.8 c -4.1 -0.5 -7.7 -1.1 -7.9 -1.4 -0.3 -0.2 0.6 -1.2 1.9 -2.2 17.6 -12.7 21.5 -14.2 32.3 -12.2 4 0.7 8.4 2.2 9.9 3.2 2.6 1.8 2.7 1.8 4.6 -0.6 1 -1.4 3.4 -2.7 5.5 -3.1 2.3 -0.5 3.9 -1.4 4.2 -2.6 0.9 -2.7 3.7 -3.9 8.4 -3.6 3.5 0.2 4.1 0.5 4.1 2.5 0 1.4 -0.9 2.6 -2.2 3.2 -1.3 0.6 -4.3 2.6 -6.8 4.4 -2.5 1.9 -4.9 3.5 -5.3 3.5 -0.5 0.1 -2.7 1.7 -5 3.6 -3.3 2.8 -4.9 3.5 -8.4 3.5 -3 0 -4.5 -0.5 -4.9 -1.5 -0.4 -0.8 -1.7 -1.5 -3.1 -1.5 -1.3 0 -3.3 -0.5 -4.3 -1 -1.6 -0.9 -2.2 -0.5 -3.6 1.7 -3.6 5.7 -4.7 5.9 -19.4 4.1 z "/>
  <path d="M 207.7 67.8 l -2.8 -3.2 2.3 -1.7 c 1.3 -1 3.9 -1.9 5.8 -2.1 2.3 -0.2 3.5 -0.8 3.5 -1.8 0 -0.8 1.6 -2.3 3.5 -3.4 5.6 -3 14.5 -4.4 26.5 -3.9 14.2 0.5 17.5 1 17.5 2.8 0 1.2 -1.5 1.5 -6.8 1.5 -5.6 0 -7.2 0.4 -8.7 2 -1.1 1.2 -3.1 2 -5 2 -2.3 0 -3.7 0.7 -4.8 2.4 -3 4.5 -4.8 5.6 -9.1 5.6 -2.7 0 -4.8 0.6 -5.6 1.5 -0.9 1 -3.1 1.5 -7.4 1.5 -5.6 -0.1 -6.3 -0.4 -8.9 -3.2 z "/>
 </g>
 <g fill="#f6b929">
  <path d="M 300 324.3 c -0.1 -3.2 -0.7 -6.9 -1.5 -8.3 -0.8 -1.4 -1.4 -4 -1.5 -5.8 0 -1.9 -0.6 -3.5 -1.5 -3.8 -0.9 -0.4 -1.5 -1.9 -1.5 -4 0 -2.9 0.4 -3.4 3.4 -4.3 4 -1 10.6 -6 10.6 -7.9 0 -0.7 1.1 -1.8 2.5 -2.4 2.6 -1.2 3.4 -2.8 1.3 -2.8 -0.7 0 -2.4 -1.2 -3.8 -2.6 -3.5 -3.7 -3.9 -12.7 -1.1 -21.3 2.4 -7.3 4.5 -10.1 7.5 -10.1 1.1 0 4.6 -1 7.8 -2.2 4.9 -1.9 5.8 -2.7 5.8 -4.8 0 -1.4 0.4 -3.1 0.9 -3.9 0.7 -1.1 1.4 -0.9 3.4 1.5 1.9 2.2 2.6 4.4 3.1 10.4 0.7 6.9 0.6 7.6 -1.4 9.2 -1.7 1.4 -2 2.4 -1.5 5 0.8 4.4 -2.9 10.2 -6.8 10.6 -2.2 0.3 -2.7 0.7 -2.2 2.3 0.5 1.6 0.1 1.9 -2.2 1.9 -5.4 0 -6.9 3.6 -2.8 7.2 1.3 1.1 2.2 2.5 1.8 3.1 -0.8 1.3 -0.6 15.3 0.3 20 0.7 3.7 0.5 4.1 -5.2 9.9 -6.3 6.3 -10 8.8 -13.4 8.8 -1.8 0 -2 -0.6 -2 -5.7 z "/>
  <path d="M 103.1 246.1 c -0.1 -1.9 -7.6 -9.1 -9.5 -9.1 -0.9 0 -1.6 -0.8 -1.6 -1.7 0 -1 -0.9 -2.9 -1.9 -4.2 l -1.9 -2.5 3.2 -1.6 c 1.7 -1 3.6 -2.7 4.2 -3.9 0.6 -1.2 2.1 -3.2 3.3 -4.5 2.3 -2.5 2.8 -6.6 0.8 -6.6 -0.8 0 -2.2 -0.9 -3.1 -1.9 -2.6 -2.9 -7.4 -3.2 -11.5 -0.7 -4.4 2.5 -5.9 4.3 -6.7 7.9 -0.4 1.5 -1.2 2.6 -1.8 2.4 -1.8 -0.6 -1.9 -4.7 -0.3 -8.6 0.9 -2 1.8 -5.4 2.1 -7.5 0.6 -4.3 4 -8.6 6.7 -8.6 2.3 0 9.2 -12.5 8.3 -15.2 -0.3 -1.1 0 -3.3 0.6 -4.9 1 -2.3 1 -3.2 -0.1 -4.5 -1.1 -1.4 -1 -1.8 0.6 -3 1 -0.8 2.6 -1.4 3.5 -1.4 0.9 0 2 -0.4 2.6 -0.9 0.5 -0.6 2.3 -0.3 4.4 0.7 2.9 1.4 3.8 2.7 5.7 8.2 1.2 3.6 3.2 7.3 4.4 8.3 l 2.2 1.8 -2.7 2.8 c -2.5 2.6 -2.6 2.9 -1 4.2 1.3 1.1 1.8 1.1 2.1 0.2 0.3 -0.7 1.3 -1.3 2.3 -1.3 2.5 0 4.3 -2.5 3.5 -4.9 -0.3 -1.2 -0.4 -2.5 -0.1 -3 1 -1.5 6.5 1.8 7.2 4.3 0.5 2 6.3 5.6 9 5.6 0.5 0 3.2 2.3 5.9 5 2.7 2.8 5.5 5 6.1 5 2.2 0 11 7.7 14.8 12.9 l 3.8 5.1 -2.8 4.8 c -4.3 7.3 -8.4 15.6 -8.4 17 0 1.8 -1.8 1.5 -4.7 -0.8 -3.1 -2.4 -5.3 -2.6 -5.3 -0.5 0 2.4 -2.5 2.8 -5.9 1.1 -3.8 -2 -8.5 -2 -11.5 -0.1 -2.1 1.4 -2.6 1.4 -5.3 -0.2 -2.8 -1.6 -3.2 -1.6 -4.7 -0.1 -1.2 1.3 -2.4 1.4 -4.8 0.8 -5.8 -1.5 -9.3 -0.4 -10.8 3.4 -0.5 1.1 -0.9 1.5 -0.9 0.7 z "/>
  <path d="M 248 145.1 c 0 -4.4 2.9 -7.5 12.6 -13.7 6.2 -3.9 13 -11.6 13.8 -15.5 0.8 -4 7.6 -7.7 15.6 -8.6 5.6 -0.5 6.8 -1.1 10.2 -4.5 3.4 -3.4 4.4 -3.9 7.9 -3.7 3.2 0.3 4.7 -0.3 7.6 -2.6 2.7 -2.1 5 -3 9 -3.3 2.9 -0.2 5.3 -0.1 5.3 0.3 0 0.9 -1.8 3 -5.7 6.7 -4.4 4.1 -2.1 6.7 6.5 7.3 1.2 0.1 3 0.9 4 1.9 1 0.9 2.4 1.6 3 1.6 1.6 0 1.5 1.5 -0.5 5.3 -1.7 3.3 -1.8 8.5 -0.2 10.1 1.7 1.8 0.9 7.2 -1.4 9.9 -2.3 2.7 -4.7 3.6 -4.7 1.7 0 -0.5 -1.7 -2.1 -3.9 -3.5 -3.8 -2.6 -6.1 -6 -6.1 -9.4 0 -1.4 -1 -0.9 -4.3 2.3 -2.4 2.2 -5.6 5.1 -7 6.3 -3 2.4 -3.5 4.3 -1.2 4.3 2.1 0 1.9 2.6 -0.2 3.5 -3.3 1.3 -13.8 3.3 -15 2.8 -0.7 -0.3 -2.5 -0.1 -4.1 0.5 -2.1 0.7 -3.9 0.6 -6.8 -0.4 -6.2 -2.3 -11.1 -2 -31.3 1.5 -0.2 0.1 0.2 0.8 0.9 1.6 1.1 1.3 0.8 1.5 -1.4 1.5 -2.4 0 -2.6 -0.4 -2.6 -3.9 z "/>
  <path d="M 375.2 132.7 c -1.2 -1.3 -2.2 -2.9 -2.2 -3.5 0 -1.5 -7 -5.9 -12.2 -7.8 -3.7 -1.3 -4.2 -1.2 -6.8 0.6 -3.6 2.5 -6 2.6 -6 0.1 0 -1.1 -0.4 -2.3 -1 -2.6 -1.9 -1.1 -0.9 -5 3.4 -13.6 1.2 -2.3 1.1 -2.8 -1.2 -4.7 -2 -1.9 -2.2 -2.5 -1.2 -3.7 0.8 -1 2 -1.3 3.4 -0.9 1.2 0.4 3.4 0.7 5 0.8 3.1 0.1 3.5 0.6 6.3 8 1 2.6 2.4 5 3 5.3 0.7 0.3 2.7 -0.4 4.5 -1.5 2.6 -1.6 4.5 -1.9 8.7 -1.6 3 0.3 6.4 1.2 7.5 2 1.1 0.8 2.9 1.4 3.9 1.4 1.6 0 1.7 0.3 0.7 1.5 -0.7 0.8 -2.3 1.5 -3.6 1.5 -3.4 0 -5.1 3.3 -6.6 12.8 -0.7 4.5 -1.7 8.2 -2.3 8.2 -0.7 0 -2.1 -1 -3.3 -2.3 z "/>
  <path d="M 209.7 113.1 c -0.9 -1.6 -1.7 -3.6 -1.7 -4.4 0 -2.1 -3.2 -3 -6.4 -1.7 -3.7 1.4 -8.9 1.3 -10.4 -0.2 -0.7 -0.7 -1.2 -2.9 -1.2 -5 l 0 -3.8 -6.5 0 c -3.5 0 -7.4 -0.4 -8.7 -0.9 -1.3 -0.5 -3.5 -1.2 -5 -1.5 -2.5 -0.6 -2.8 -1.1 -2.8 -4.4 0 -2.6 0.6 -4.1 2 -5 1.1 -0.7 2 -2 2 -3 0.1 -1.6 0.1 -1.6 1.1 0.1 1.5 2.5 3 2.1 7.6 -1.8 2.3 -1.9 4.4 -3.5 4.7 -3.5 0.3 0 2.8 -1.5 5.5 -3.4 l 4.8 -3.4 1.3 5 c 0.8 2.7 1.8 5.2 2.4 5.5 1.7 1.1 11 0.5 11.4 -0.7 0.3 -0.7 1.7 -2.6 3.2 -4.4 2 -2.3 2.6 -3.6 1.9 -4.7 -0.5 -0.7 -0.9 -2.2 -0.9 -3.3 0 -1.5 0.6 -1.7 3.1 -1.4 2.2 0.3 3.4 -0.1 4.3 -1.4 1.1 -1.5 2.1 -1.7 5.3 -1.2 4.2 0.6 5.7 -0.2 9 -5.2 1.1 -1.7 2.5 -2.4 4.8 -2.4 1.9 0 3.9 -0.8 5 -2 2.6 -2.8 11.5 -2.9 11.5 -0.1 0 4 -1.4 8.3 -2.8 8.9 -3.1 1.1 -9.1 8.1 -9.4 10.9 -0.3 2.8 -0.3 2.8 -7.6 2.8 -6 0 -7.2 0.3 -7.2 1.6 0 1 1.1 2 2.5 2.3 2.3 0.6 2.5 1.1 2.5 6.4 0 5.3 -0.3 6.1 -3.5 9.2 -1.9 1.9 -3.5 4.3 -3.5 5.3 0 2.3 -3.7 8.7 -5.1 8.7 -0.5 0 -0.9 0.7 -0.9 1.5 0 2 -3.2 3.5 -7.2 3.5 -2.7 0 -3.7 -0.6 -5.1 -2.9 z "/>
  <path d="M 331 90.7 c 0 -4.4 -3.1 -7.9 -8.6 -9.7 -3.3 -1.1 -3.5 -1.4 -3.2 -5.3 0.2 -3.3 0.7 -4.3 2.3 -4.5 2.6 -0.5 4.5 -3 4.5 -6 0 -1.9 0.4 -2.3 1.8 -1.7 0.9 0.5 5.2 2 9.6 3.5 4.3 1.5 8.6 3.5 9.5 4.5 1.5 1.6 1.4 1.8 -0.6 3.2 -1.7 1.1 -2.3 2.5 -2.3 5.3 0 3 -0.6 4.3 -2.6 5.9 -1.5 1.2 -3.1 2.1 -3.7 2.1 -0.6 0 -2.3 1.5 -3.8 3.3 l -2.8 3.2 -0.1 -3.8 z "/>
 </g>
 <g fill="#ebb440">
  <path d="M 230.3 312.7 c -1.2 -1.2 -4.1 -6 -6.3 -10.7 l -4.2 -8.4 0.1 -11.6 c 0.1 -12.1 0.5 -14.7 5 -33.2 4.1 -16.3 6.3 -19.9 7.5 -11.5 1.8 13 1.9 18.7 0.2 21.1 -2.5 3.8 -2 4.6 2.8 4.6 5 0 5.6 0.8 5.6 7.2 0 3.4 -0.6 4.7 -3.6 7.6 -1.9 1.8 -4.7 3.7 -6.2 4.1 -3.4 0.9 -4.1 5.5 -1.6 10.3 1 1.8 2.2 6 2.6 9.3 0.5 3.3 1.1 7.7 1.4 9.8 0.7 4.2 -0.1 4.5 -3.3 1.4 z "/>
  <path d="M 275.9 304.8 c 6.5 -9.7 9.4 -15.9 8.1 -17.2 -0.7 -0.7 -1.7 -0.7 -3 0.2 -1.9 1.1 -2 0.9 -2 -3.3 0 -3.2 0.4 -4.5 1.4 -4.5 0.7 0 1.6 0.9 1.9 2 0.4 1.5 1.4 2 3.8 2 2.6 0 4.1 -1 7.7 -4.7 2.4 -2.7 5.5 -6.7 6.9 -9 1.9 -3.4 3.1 -4.3 5.1 -4.3 2.6 0 2.7 0.2 2.7 5.4 0 4.3 0.5 5.8 2.5 7.9 1.4 1.5 3.1 2.7 3.8 2.7 0.6 0 1.2 0.6 1.2 1.3 0 0.6 0.3 2.2 0.6 3.4 0.5 1.7 -0.1 2.5 -2.5 3.7 -1.7 0.9 -3.1 2.2 -3.1 2.9 0 1.8 -6.7 6.8 -10.8 7.9 -3 0.8 -3.3 1.2 -1.9 2 3.8 2.1 1.7 3.1 -5.1 2.5 l -6.9 -0.7 -2.9 3.5 c -2.6 3.1 -3.4 3.5 -7.7 3.5 l -4.7 0 4.9 -7.2 z "/>
  <path d="M 170.1 209.6 l -3.2 -3.3 3 -0.6 c 1.6 -0.4 3.8 -1.8 4.8 -3.3 1 -1.5 3 -3.9 4.4 -5.3 1.9 -2 2.7 -4 3.1 -7.9 0.8 -8 1.9 -8.7 11.9 -7.4 7.1 0.9 8.5 0.8 10.8 -0.6 4.1 -2.6 12.1 -9.5 12.1 -10.5 0 -3.7 12.9 -12.7 18.1 -12.7 1 0 3.6 -1.8 5.6 -4 2.8 -3 4.6 -4 6.9 -4 1.6 0 3.5 -0.5 4.1 -1.1 1.8 -1.8 2.7 1 0.9 3 -2.6 2.8 -1.8 3.7 0.9 1.1 2 -1.8 2.8 -2.1 3.7 -1.2 0.7 0.7 2 1.2 3 1.2 1 0 1.8 0.7 1.8 1.5 0 0.8 -0.5 1.5 -1.2 1.5 -0.6 0 -2.5 1.1 -4.2 2.4 -1.7 1.3 -5.1 3.3 -7.6 4.6 -2.5 1.2 -5.4 3 -6.5 4 -1.1 1 -3.2 2.4 -4.7 3.1 -1.5 0.8 -8.1 5.1 -14.7 9.6 -6.6 4.5 -14.8 9.6 -18.2 11.4 -7.2 3.6 -13.7 8.2 -23 16.3 -3.5 3.1 -6.9 5.6 -7.4 5.6 -0.6 0 -2.6 -1.5 -4.4 -3.4 z "/>
  <path d="M 128.7 167.5 c -2.7 -2.7 -10.6 -17.3 -11.5 -21.2 -0.6 -2.5 -3.2 -6.8 -7.1 -11.7 -5.7 -7 -11.1 -15.5 -11.1 -17.5 0 -0.4 3.5 -4.2 7.8 -8.4 6.2 -6.2 7.8 -7.3 8 -5.8 0.2 1.1 1 2.5 1.8 3.1 0.8 0.7 1.4 2.7 1.4 4.5 0 3.6 1.2 4.9 5 5.8 2.9 0.7 6 5.4 6 9.1 0 1.5 -0.7 3.8 -1.6 5.2 -1.6 2.4 -1.6 2.6 0.5 4 1.1 0.8 2.1 2.5 2.1 3.8 0 1.2 1.1 3.3 2.5 4.6 2 1.9 2.5 3.3 2.5 7.2 0 2.6 -0.4 4.8 -0.9 4.8 -0.5 0 -1.5 3.2 -2.1 7 -0.6 3.9 -1.3 7 -1.5 7 -0.2 0 -1 -0.7 -1.8 -1.5 z "/>
 </g>
 <g fill="#f6c339">
  <path d="M 278.3 334.1 c -1.7 -1.1 -3.4 -2.8 -3.7 -3.9 -0.4 -1.1 -1.9 -2.2 -3.6 -2.6 -2.8 -0.5 -3 -0.9 -3 -5 0 -3 0.5 -4.6 1.5 -5 0.8 -0.3 1.5 -1.5 1.5 -2.6 0 -3.3 1.9 -6 4.2 -6 2.2 0 7.8 -5.4 7.8 -7.6 0 -1.9 3.9 -2.4 4.9 -0.6 0.7 1.3 1.2 1.4 2.4 0.4 1.1 -1 1.7 -0.9 2.7 0.3 0.7 0.8 2.3 1.5 3.7 1.5 2.5 0 3.1 0.8 3.7 5.5 0.3 1.7 1.2 5 2.1 7.5 1 2.7 1.4 5.7 1 7.7 -0.5 2.6 -0.3 3.3 1 3.3 2.8 0 1.5 1.8 -3.7 5.1 -4.4 2.8 -6.5 3.4 -12.3 3.7 -5.7 0.2 -7.6 -0.1 -10.2 -1.7 z "/>
  <path d="M 307 262 c 0 -4.1 -2.4 -9.5 -6 -13.6 -1.6 -1.9 -3 -4.5 -3 -5.7 0 -1.2 -0.9 -2.8 -2 -3.5 -1.1 -0.7 -2 -1.9 -2 -2.8 0 -2 -4.9 -8.4 -6.5 -8.4 -0.7 0 -3.9 -1.3 -7.1 -3 -3.2 -1.6 -6.7 -3 -7.6 -3 -1.4 0 -1.8 -0.8 -1.8 -3.4 0 -3.8 1.2 -4.6 7.1 -4.6 3.5 0 4.1 -0.4 5.6 -3.5 1.9 -3.9 2.3 -4.1 6.1 -2.1 1.5 0.7 5.2 1.7 8.2 2 9.4 1.2 20 4.7 21.2 7 0.6 1.2 1.7 2.5 2.4 2.9 0.8 0.4 2.1 2.2 3 4 0.9 1.8 2.8 4.2 4.1 5.4 1.7 1.6 2.3 3.3 2.3 6 0 2.1 0.1 6.6 0.4 10.1 0.4 5.6 -0.3 7.8 -1.9 5.2 -0.3 -0.5 -2.4 -0.1 -5.1 1 -2.5 1.1 -5.6 2 -6.9 2 -2.8 0 -6.1 3.8 -7 8 -0.9 4 -3.5 4 -3.5 0 z "/>
  <path d="M 164.5 204.4 c -2.7 -2.5 -8.1 -7 -12 -9.9 -7.3 -5.6 -19.9 -19 -21.8 -23.4 -0.7 -1.4 -1.6 -2.9 -2.1 -3.3 -1.1 -0.8 1.1 -15.2 2.4 -15.6 1.8 -0.7 1 -3.8 -1.5 -6.2 -1.4 -1.3 -2.5 -3.3 -2.5 -4.5 0 -1.2 -1.1 -3.1 -2.5 -4.3 -3 -2.6 -3.1 -4.7 -0.6 -8.8 1.9 -3.1 1.9 -3.2 0 -6 -3.3 -5.1 -2.1 -7.4 3.8 -7.4 2.5 0 7.3 4 7.3 6.1 0 0.5 1.3 0.9 2.8 0.9 4.8 0 6.3 1.9 6.9 8.8 0.4 4.6 0.2 6.7 -1 8.5 -2.5 3.9 -2.5 7.3 0.2 10.1 2 2.2 2.3 3.2 1.8 7.3 l -0.5 4.8 6.9 6.8 c 3.8 3.8 6.9 7.3 6.9 7.9 0 0.5 0.8 0.7 1.7 0.4 3.4 -1.3 13 -1.9 13.7 -0.8 0.4 0.7 2.5 0.9 5.7 0.5 4.5 -0.5 5.3 -0.3 7.9 2.2 3 2.9 4.5 9 1.6 6.6 -1.6 -1.4 -3.1 0.1 -4.1 4.2 -0.7 2.6 -0.6 2.7 2.4 2.1 5 -1 3.9 2.1 -1.9 5.7 -2.8 1.7 -5.7 4.4 -6.5 5.9 -1.8 3.5 -5.2 6 -8 6 -1.1 -0.1 -4.2 -2.1 -7 -4.6 z "/>
  <path d="M 303.3 140.2 c -4.5 -1.7 -5.6 -3.8 -2.5 -4.9 0.9 -0.3 2.9 -1.8 4.3 -3.2 1.5 -1.4 4.5 -4.1 6.7 -5.8 2.2 -1.8 5.5 -5.5 7.3 -8.3 1.8 -2.7 3.6 -5 4 -5 1 0 2.2 7.7 1.4 9 -1.2 1.9 1.6 6.9 5.1 9.1 4.3 2.6 6 5.5 4.4 7.4 -0.6 0.8 -1.8 1.1 -2.5 0.8 -0.8 -0.2 -3.8 0 -6.6 0.6 -3.8 0.8 -6.1 0.8 -8.5 0.1 -2.5 -0.9 -3.9 -0.8 -6.1 0.3 -2.4 1.3 -3.3 1.2 -7 -0.1 z "/>
  <path d="M 240.4 135.5 c -1.5 -1.4 -3.9 -2.8 -5.3 -3.1 -1.4 -0.3 -4.2 -1.3 -6.1 -2.2 -2.2 -1 -7 -1.8 -12.7 -2 -8.2 -0.4 -9.6 -0.2 -12.3 1.8 -2.2 1.5 -5.1 2.3 -10.4 2.7 -6.7 0.5 -7.4 0.4 -9.4 -1.8 -1.5 -1.5 -2.2 -3.6 -2.2 -6.2 0 -3.4 0.7 -4.6 5.7 -9.6 5 -4.9 5.6 -6 5.4 -9.1 -0.2 -2.9 -0.1 -3.2 1.2 -2.2 1.1 0.9 2.2 1 4.1 0.2 5.6 -2.1 12.9 -0.9 13.2 2.2 0.3 2.8 0.5 3.4 1.8 5.1 1.2 1.5 1.8 1.6 3.5 0.7 1.2 -0.6 2.1 -1.7 2.1 -2.5 0 -0.8 0.4 -1.5 0.9 -1.5 1.4 0 5.1 -6.4 5.1 -8.7 0 -1 1.6 -3.4 3.5 -5.3 4.6 -4.5 4.8 -8.4 0.4 -9.9 -2.6 -0.9 -3 -1.5 -2.5 -3.3 0.3 -1.3 0.6 -3.3 0.6 -4.4 0 -1.7 0.8 -2.3 3.3 -2.7 1.7 -0.2 3.7 0 4.4 0.5 0.6 0.5 2.4 0.8 4 0.6 2.2 -0.2 2.8 -0.8 2.8 -2.8 0 -2.5 6.5 -10 9.7 -11.2 0.9 -0.4 1.8 -2.3 2.2 -4.2 l 0.7 -3.6 11.4 0 c 12.9 0 13.6 0.5 9.1 6.4 -2.8 3.8 -5.6 13.9 -5.6 20.5 0 3.5 -0.5 5.3 -2 6.6 -1.1 1 -2 2.9 -2 4.3 0 2.3 -0.2 2.4 -4.4 2 l -4.5 -0.5 -0.3 4 c -0.3 4.2 -1.3 5.2 -6.1 6.2 -2.8 0.6 -6.1 6 -4.8 8 0.3 0.6 1.1 3.7 1.6 7 0.9 5.1 1.3 6 3.5 6.5 2.1 0.5 2.5 1.2 2.8 4.8 0.6 8.4 -6.4 12.2 -12.4 6.7 z "/>
  <path d="M 273 118.1 c -0.5 -1.1 -1 -3.3 -1 -5 0 -3.2 -1.1 -3.7 -10 -4.3 -3.3 -0.3 -3.5 -0.5 -3.8 -4.3 -0.4 -4.6 1.4 -6.5 6.5 -6.5 3.1 0 3.3 -0.2 3.3 -3.3 0 -2.6 0.9 -4.1 4 -7 3.1 -2.8 4 -4.4 4 -7 0 -1.8 0.5 -3.8 1.2 -4.5 1.4 -1.4 7.7 -1.6 11.1 -0.3 2.2 0.9 2.5 0.7 3.1 -2.1 0.3 -1.7 0.6 -4.3 0.6 -5.9 0 -1.5 0.5 -3.1 1 -3.4 0.6 -0.3 1 -1.5 1 -2.6 0 -1.7 0.7 -2 4.3 -1.9 5.7 0 12.1 -1 12.8 -2.2 0.3 -0.5 4.3 0.6 9 2.4 7.9 3.1 8.4 3.5 8.7 6.5 0.4 4.1 -1.2 7.1 -4 7.5 -3.5 0.5 -3.2 2.5 0.6 3.8 5.5 1.8 8.6 5.3 8.6 9.8 0 4.7 -2.2 7 -8 8.3 -2.3 0.5 -5.9 2.3 -8 4 -3.2 2.6 -4.6 3.1 -7.6 2.7 -3.3 -0.4 -4.2 0 -7.4 3.2 -3.2 3.2 -4.5 3.8 -10 4.3 -7 0.8 -14.5 4.5 -15.5 7.7 -0.8 2.5 -3.1 2.6 -4.5 0.1 z  m 36.2 -21.1 c 3.9 0 4 -0.1 3.3 -2.7 -1.5 -5.9 -1.7 -10.4 -0.6 -11.7 0.8 -0.9 0.8 -1.6 0.2 -2 -0.5 -0.4 -1.2 -0.2 -1.6 0.4 -0.3 0.5 -1.4 1 -2.4 1 -2.6 0 -6.1 4.3 -6.8 8.3 -0.7 4.5 1.5 10.8 2.9 8.3 0.6 -1.1 2.3 -1.6 5 -1.6 z "/>
  <path d="M 133.9 100.3 c -2.3 -6.5 -3.2 -8.3 -4 -8.3 -1.9 0 -0.8 -3 1.6 -4.6 2.1 -1.4 3.7 -1.5 10.7 -0.6 4.6 0.5 8.9 0.7 9.6 0.4 0.7 -0.2 2 -1.8 2.8 -3.4 2.1 -4 5.7 -5.2 9.4 -3.3 1.8 0.9 4 1.3 5.5 0.9 1.7 -0.4 2.5 -0.2 2.5 0.7 0 0.7 0.7 2 1.6 3 1.4 1.5 1.3 1.9 -1.2 3.8 -2.5 2 -2.6 2.2 -1 3.4 1.5 1.1 1.4 1.4 -1.8 2.5 -2.6 1 -3.5 1.9 -3.8 4 -0.3 2.5 -0.6 2.7 -4.8 2.6 -2.5 -0.1 -6.8 -0.5 -9.6 -1.1 -4.5 -0.8 -5.3 -0.7 -6.3 0.9 -0.8 1.3 -2.3 1.8 -5.6 1.8 -4.1 0 -4.7 -0.3 -5.6 -2.7 z "/>
  <path d="M 199 86.1 c -0.8 -0.5 -2.2 -1.2 -3 -1.4 -2.1 -0.6 -4.6 -9.5 -3.3 -11.6 0.5 -0.8 3 -2.7 5.6 -4.1 2.5 -1.4 5.4 -3.3 6.4 -4.2 2.6 -2.4 4.9 -2.3 6.7 0.4 0.9 1.2 2.6 2.3 3.8 2.3 1.8 0 2.6 1 3.7 4.2 1.5 4.1 1.5 4.1 -1.7 6.8 -1.7 1.4 -3.4 3.4 -3.7 4.4 -0.3 1.1 -1.9 2.1 -3.8 2.4 -1.8 0.4 -4.5 0.8 -6.2 1.1 -1.6 0.3 -3.7 0.2 -4.5 -0.3 z "/>
 </g>
 <g fill="#f0c34d">
  <path d="M 272.9 336.6 c -0.2 -0.3 -6.5 -0.7 -13.9 -1.1 -19.8 -0.8 -23.6 -1.3 -33.5 -4.6 -6.1 -2 -10.1 -4 -12.2 -6.1 -4.8 -4.7 -5 -6.4 -1.3 -10.3 4.6 -4.8 3.8 -7 -2.5 -7 -5 0 -5 0 -5.3 -3.5 -0.1 -1.9 -0.9 -7.2 -1.8 -11.8 -2.9 -15.5 0.4 -41.4 7 -53.9 4.3 -8.1 16 -22 21.9 -25.8 2.3 -1.6 5.4 -3.7 7 -4.7 9.3 -6.3 16.6 -7.1 32.7 -3.3 5.8 1.4 11.9 2.5 13.7 2.5 4.3 0 4.8 1.2 2.4 5.8 -2.8 5.6 -4.6 6.8 -7.5 5.2 -1.5 -0.8 -3 -0.9 -4 -0.3 -1.2 0.7 -0.5 1.2 3.1 2.3 6.2 1.8 4.2 2.3 -4.4 1.2 -5.1 -0.7 -7.2 -0.7 -8.3 0.3 -3 2.5 -14.9 6.5 -19.3 6.5 -4.4 0 -4.4 0 -5.1 4 -0.4 2.3 -1.7 5.1 -3.4 6.8 -1.5 1.5 -3.4 3.9 -4.3 5.2 -1 1.5 -2.1 2.1 -3.1 1.7 -1.7 -0.6 -1.8 -6.9 -0.3 -16.3 0.7 -4.3 -0.7 -6.6 -2.7 -4.6 -1.6 1.6 -6.7 17 -9.9 30.2 -2.4 9.6 -3.2 15.7 -3.6 26.3 -0.7 16.9 0.6 22.2 7.9 32.1 4.2 5.9 5.9 7.2 12.3 10.3 7.2 3.4 7.5 3.4 13.2 2.3 8.9 -1.8 13.3 -4.2 19.8 -10.9 3.3 -3.3 6.7 -6.1 7.7 -6.1 1.6 0 1.6 0.3 0.2 3.5 -0.7 1.9 -1.4 4.4 -1.4 5.5 0 1.1 -0.7 2.3 -1.5 2.6 -2.5 1 -1.7 3.4 1.5 4 1.7 0.4 3.2 1.5 3.6 2.6 0.8 2.8 6.3 5.8 10.4 5.8 2.2 0 5.5 -1.3 8.8 -3.4 3.5 -2.2 6.2 -3.1 7.8 -2.8 1.3 0.2 2.4 0.7 2.4 1.1 0 1.5 -11.3 7.2 -16.1 8.1 -5.2 1 -17.2 1.4 -18 0.6 z "/>
  <path d="M 239.3 318 c -2.6 -1.1 -3.2 -5 -0.8 -5 2.1 0 6.5 -2.9 6.5 -4.3 0 -0.6 1.8 -3.2 3.9 -5.7 4.8 -5.7 6.1 -10.1 6.1 -20.7 0 -4.6 0.4 -8.3 0.9 -8.3 0.4 0 2.5 -1.3 4.6 -3 3 -2.4 4.8 -3 8.4 -3 4.5 0 4.9 0.2 8.5 5.1 2.3 3.1 4 6.7 4.3 9 0.5 3.4 0 4.5 -6.6 13.2 -7.7 10.3 -16 18.5 -21.3 21 -4.3 2 -11.7 2.9 -14.5 1.7 z "/>
  <path d="M 132 124.1 c 0 -2 -4.6 -6 -5.9 -5.1 -0.8 0.4 -1.1 1.2 -0.7 1.8 1.2 2 -1 2.1 -2.7 0.1 -0.9 -1 -2.4 -1.9 -3.3 -1.9 -1.7 0 -9.3 -5.1 -9.4 -6.2 0 -0.5 0.9 -0.8 1.9 -0.8 2.7 0 3.4 -1.5 1.6 -3 -4 -3.3 1.2 -10.3 11.1 -14.9 2.4 -1.2 4.4 -2.8 4.4 -3.6 0 -0.9 0.9 -1.5 2.5 -1.5 2 0 2.7 0.8 4.2 5.1 2.1 5.9 3.5 6.9 6.4 4.3 2 -1.8 2 -1.8 1.7 2.1 -0.3 3.9 -0.4 4 -4.4 4.3 l -4.1 0.3 0.1 9.7 c 0.1 8.4 -0.1 9.7 -1.6 10 -1 0.2 -1.8 -0.1 -1.8 -0.7 z "/>
 </g>
 <g fill="#f6d144">
  <path d="M 235.4 316.3 c -3.8 -1.9 -6.4 -6.9 -6.4 -12.4 0 -2.2 -0.9 -5.8 -2 -8 -1.6 -3 -2 -5.5 -1.8 -10.1 0.3 -5.8 0.5 -6.2 3.1 -6.9 1.5 -0.4 4.6 -2.7 6.9 -5 3.2 -3.3 4.4 -4 5.7 -3.2 2.9 1.8 4.3 12.3 1.7 12.3 -2.4 0 -2.6 1.5 -1.1 7.4 0.8 3.1 1.5 7.4 1.5 9.4 0 6.5 0.9 8.2 4.2 8.2 2.6 0 2.9 0.2 1.8 1.5 -0.7 0.9 -1 1.8 -0.6 2.2 0.7 0.8 -4.9 4.3 -6.9 4.3 -0.8 0 -1.5 0.5 -1.5 1 0 1.3 -0.9 1.2 -4.6 -0.7 z "/>
  <path d="M 292 282.4 c 0 -0.3 2 -3.1 4.5 -6.2 7 -9 9.1 -17.2 6 -23.2 -1.3 -2.5 -2.2 -3 -5.3 -3 -2.4 0 -4.7 0.8 -6.7 2.4 l -2.9 2.3 -1.3 -2.4 c -1.5 -2.9 -1.7 -9.9 -0.4 -10.7 1.3 -0.9 0.1 -4.6 -1.5 -4.6 -0.8 0 -1.4 -0.6 -1.4 -1.3 0 -0.7 -1.5 -2.1 -3.2 -3.2 -4.1 -2.4 -15.1 -2.5 -21.8 -0.1 -2.5 0.9 -5.7 1.6 -7.2 1.6 -2.6 0 -2.8 -0.3 -2.8 -4.4 0 -4.4 0.9 -5.8 4 -6.3 2 -0.3 9.2 -3.5 11 -4.9 2.5 -1.9 7.3 -2.4 9.4 -0.8 1.1 0.8 2.7 1.4 3.5 1.4 0.9 0 4.2 1.4 7.5 3 3.2 1.6 6.2 2.8 6.6 2.5 1 -0.6 7 6.8 7 8.7 0 2.1 2.1 3.8 4.6 3.8 3.2 0 3.8 1.6 1.4 3.3 -2.1 1.5 -2.1 1.5 0.9 5 4.2 4.7 6.1 9.6 6.1 15.7 0 4.3 -0.4 5.5 -2.8 7.8 -1.6 1.5 -4.3 4.8 -6.1 7.4 -3 4.5 -5.7 6.8 -8 6.8 -0.6 0 -1.1 -0.3 -1.1 -0.6 z "/>
  <path d="M 199.4 187.6 c -0.8 -2.1 -3.2 -2.7 -5.4 -1.4 -1.6 1 -2.6 0.6 -6.9 -3 -5.5 -4.6 -6.1 -4.9 -6.1 -2.7 0 0.8 -0.7 1.5 -1.5 1.5 -1.5 0 -2.5 -0.4 -7.2 -2.8 -1.5 -0.8 -3 -0.9 -4.8 -0.2 -1.4 0.5 -2.5 0.7 -2.5 0.4 0 -0.2 -1.3 0.2 -3 1.1 -4 2.1 -6 1.9 -6 -0.6 0 -1.2 -2.4 -4.3 -6.1 -7.6 -8.2 -7.7 -10.1 -11.9 -7.3 -16.4 0.3 -0.6 -1.1 -2.8 -3.1 -4.9 -3.6 -3.7 -3.7 -3.9 -2.1 -6.1 0.9 -1.3 1.6 -3.2 1.6 -4.2 0 -1 0.7 -2.8 1.6 -4.2 1.1 -1.6 1.3 -3.4 0.8 -5.9 -0.7 -4 -2.9 -5.8 -6.1 -5 -2.7 0.7 -3.5 -0.8 -2.7 -5.1 l 0.6 -3.5 7.7 0 c 10.7 0 14.8 0.8 15.4 3.1 0.3 1.1 1.4 1.9 2.6 1.9 1.6 0 2.1 0.6 2.1 2.5 0 2.1 0.5 2.5 2.8 2.5 4.3 0 5.9 -2.6 6.6 -10.6 0.8 -8.1 0.6 -8.4 -6.9 -8.4 -4.1 0 -4.3 -0.1 -4.9 -3.8 -0.9 -5.7 -0.8 -6.2 1.7 -5.9 1.7 0.1 2.3 -0.4 2.5 -2.5 0.4 -3.3 4.7 -5.4 8.3 -4 7.2 2.8 10.4 3.4 15.4 2.7 5.9 -0.7 6.4 -0.3 6.9 5 0.2 1.9 1 4.3 1.9 5.3 3.3 3.8 2.5 6.4 -4.1 12.8 -3.4 3.4 -6.2 6.5 -6.2 7.1 0 0.5 1 2 2.1 3.2 1.9 2 2.8 2.2 6.8 1.6 2.5 -0.4 6.1 -1.8 7.9 -3.2 2.5 -1.8 4 -2.3 6.2 -1.8 1.6 0.3 3.9 0.1 5.1 -0.5 1.7 -0.9 2.7 -0.9 4.6 0.1 1.9 1 2.6 1 3.2 0.1 0.7 -1.2 1.4 -1 12.6 3.8 1.1 0.5 3.2 1.1 4.6 1.4 1.4 0.3 3.8 1.7 5.3 3.1 l 2.8 2.6 2 -2.6 c 2.1 -2.7 1.7 -6.1 -0.6 -5.2 -2 0.8 -3.6 -1.3 -3.6 -4.4 0 -1.5 -0.5 -3.1 -1.1 -3.5 -0.6 -0.3 -0.9 -1.7 -0.6 -3 0.2 -1.3 -0.2 -2.9 -0.9 -3.5 -1.9 -1.6 -1.7 -3.5 0.7 -8.6 1.5 -3.1 2.8 -4.5 4.7 -4.9 1.5 -0.3 3.4 -0.9 4.2 -1.3 1.7 -0.9 2.7 -7.1 1.2 -7.1 -0.6 0 -1.3 -0.7 -1.6 -1.6 -0.5 -1.3 0.1 -1.5 3.7 -1.3 2.3 0.1 5 0.6 6 1.1 1.4 0.7 1.7 0.4 1.7 -1.5 0 -1.3 0.9 -3.2 2 -4.2 1.5 -1.3 2 -3.1 2 -6.6 0 -6.3 2.7 -17 5 -19.3 1.8 -1.8 1.8 -1.7 2.5 4.8 0.5 4.8 1.1 6.4 1.8 5.7 0.6 -0.6 2.3 -1.1 3.9 -1.1 1.5 0 3.1 -0.7 3.6 -1.5 0.4 -0.9 2.4 -2.3 4.3 -3.3 3.1 -1.5 3.4 -2 3.1 -5.4 l -0.4 -3.8 4.6 0 c 4.6 0 20.6 4.5 20.6 5.8 -0.1 1.9 -1.9 3.1 -5 3.5 -1.9 0.3 -5 1 -6.8 1.7 -2.5 1 -3.6 0.9 -4.7 0 -1.2 -1 -1.5 -0.9 -1.5 0.8 0 1.2 -0.4 2.3 -0.9 2.6 -0.4 0.3 -1.2 3.8 -1.6 7.8 -0.4 4 -1 6.7 -1.2 6.1 -0.3 -0.7 -1.5 -1.3 -2.7 -1.3 -1.3 0 -3.7 -0.5 -5.5 -1.1 -4.3 -1.5 -6.5 0.3 -5.7 4.5 0.5 2.7 0 3.6 -3.9 7 -4.1 3.6 -4.5 4.3 -3.9 7.3 0.5 2.8 0.3 3.4 -1.7 4.2 -1.5 0.5 -2.9 0.5 -3.6 -0.1 -1.3 -1.1 -5.3 0.6 -5.3 2.3 0 1.6 3 2.2 5.4 1.1 1.6 -0.7 2.7 -0.6 3.9 0.3 1 0.7 2.6 1.1 3.5 0.9 0.9 -0.2 2.3 0 3.1 0.5 1.2 0.8 1.2 1.3 -0.3 3.6 -1.5 2.3 -1.6 2.9 -0.4 4.8 0.8 1.2 1.2 3.2 1 4.5 -0.4 2.8 -9.9 12.3 -18.2 18.2 -8 5.7 -9 7.2 -6.6 9.9 1.7 1.9 1.7 2.1 -0.1 4.5 -1.9 2.7 -4.3 3.4 -4.3 1.4 0 -0.7 -1.8 0.7 -4 3 -2.3 2.3 -4.9 4.2 -6 4.2 -5.1 0 -18 9 -18 12.7 0 1.6 -9.7 9.2 -18.8 14.7 -0.7 0.4 -1.4 0.1 -1.8 -0.8 z "/>
  <path d="M 299.7 101.3 c -2.4 -4.7 -2.8 -8 -1.7 -13 1.2 -5.1 4.3 -9.3 6.9 -9.3 0.9 0 2.5 -0.7 3.5 -1.5 1.1 -0.8 3.2 -1.5 4.6 -1.5 2.3 0 2.6 0.4 2.9 4.1 0.1 2.2 -0.3 4.7 -0.9 5.4 -0.7 0.9 -0.6 2.3 0.5 4.8 3 7.1 0.9 11.6 -4.8 10.2 -1.6 -0.4 -2.9 0 -4.1 1.4 -2.6 2.9 -5.3 2.6 -6.9 -0.6 z "/>
 </g>
 <g fill="#f4d85a">
  <path d="M 241.5 312 c -0.3 -0.6 -1 -4.5 -1.5 -8.8 -0.5 -4.2 -1.4 -9.5 -2 -11.7 -2.5 -8.6 -2.4 -10.4 0.3 -11 1.9 -0.5 2.4 -1.1 1.9 -2.8 -0.2 -1.2 -1.1 -2.9 -1.8 -3.8 -0.8 -0.9 -1.1 -1.8 -0.8 -2.2 0.4 -0.3 0.4 -1.8 0 -3.2 -0.8 -3.1 -3.6 -3.3 -8.2 -0.4 l -3.4 2.1 0.6 -4.9 c 0.3 -2.6 1.4 -6.4 2.3 -8.3 1.7 -3.3 2.1 -10.3 0.8 -11.6 -0.9 -0.9 1.9 -5.9 5.3 -9.4 1.6 -1.6 3.2 -4.6 3.6 -6.7 0.4 -2.1 1.5 -4.4 2.5 -5.1 1.3 -0.9 1.8 -2.3 1.6 -4.4 -0.1 -1.7 0.3 -3.3 0.9 -3.5 1.4 -0.5 2.6 3.5 1.3 4.3 -1.4 0.8 -1.1 1.8 1.2 3.2 1.6 1 2.4 1 3.5 0.1 1.5 -1.3 1.7 -0.9 1.4 3.8 -0.1 2.6 0.2 3.2 1.4 2.7 2.4 -0.9 2.1 3.3 -0.3 4.5 -1 0.6 -3.7 3.7 -5.9 6.9 -4.4 6.5 -6 13.3 -4.1 17.5 1.9 4.2 3.9 4.1 8.3 -0.1 5.7 -5.4 15.5 -13.4 19.1 -15.7 5.6 -3.5 13.4 -10 13.4 -11.2 0.1 -1.8 3.1 -1.6 3.1 0.2 0 0.8 0.6 1.5 1.4 1.5 0.7 0 1.6 0.8 2 1.8 0.3 0.9 1.1 2.5 1.8 3.4 1 1.4 0.8 2.1 -1.2 4.3 -2.1 2.2 -2.2 2.9 -1.2 4.5 1.8 2.9 1.5 4.4 -1.2 6.9 -4.8 4.5 -6.1 9.1 -6.5 21.9 -0.1 6.8 -1.7 6.8 -6.6 -0.3 -2.1 -3.1 -4.5 -5.5 -5.5 -5.5 -0.9 0 -3.4 1.4 -5.5 3 -2.1 1.7 -4.2 3 -4.6 3 -1.5 0 -1 3 0.6 3.6 0.8 0.4 1.5 1 1.5 1.6 0 0.5 -0.7 1.6 -1.5 2.4 -0.8 0.9 -1.5 3.1 -1.5 5 0 6.7 -2 11.8 -6.8 17.1 -4.7 5.2 -8.5 7.3 -9.7 5.3 z "/>
  <path d="M 155.6 131.1 c -0.4 -0.6 0.1 -2.2 1 -3.6 1.6 -2.4 1.6 -2.5 -0.6 -2.5 -1.3 0 -2.4 -0.8 -2.7 -2 -0.3 -1.2 -1.4 -2 -2.7 -2.1 -1.1 0 -5.6 -0.2 -9.8 -0.2 -6.2 -0.2 -7.8 -0.5 -7.9 -1.7 0 -0.8 -0.2 -2.6 -0.4 -4 -1.2 -7.8 -1.4 -15.9 -0.4 -16.6 0.6 -0.3 1.4 -0.3 1.8 0.2 0.6 0.9 4.7 3.4 5.5 3.4 0.2 0 1.4 -1.6 2.7 -3.6 1.7 -2.8 2.6 -3.4 4.3 -2.9 1.1 0.3 4.5 1 7.5 1.5 6.3 1.1 8.1 2.4 8.1 5.7 0 2 0.4 2.4 1.8 1.8 2.5 -1.1 3.3 -1 7.2 0.7 l 3.6 1.5 -1.1 10.1 c -1.1 11.5 -2.3 13.4 -8.2 13.8 -2.1 0.1 -5 0.5 -6.4 0.9 -1.6 0.4 -2.9 0.2 -3.3 -0.4 z "/>
  <path d="M 271.1 74.9 c -1.7 -2.3 -2 -3.3 -1.2 -4.3 0.7 -0.8 0.9 -3.4 0.6 -6.7 -0.5 -4.7 -0.3 -5.8 1.8 -8.3 2.3 -2.8 2.7 -3 10.8 -3 7.9 0 8.6 0.1 11.2 2.7 1.5 1.5 2.7 3.2 2.7 3.6 0 1.3 -6.9 7.1 -8.4 7.1 -0.8 0 -2.1 1.2 -3.1 2.6 -1.3 2 -2.2 2.4 -4 2 -1.8 -0.5 -2.9 0.1 -4.4 2 -1.2 1.5 -2.1 3.3 -2.1 4 0 2.3 -1.5 1.6 -3.9 -1.7 z "/>
 </g>
 <g fill="#d8cb8a">
  <path d="M 242.7 266.2 c -3.9 -2.4 -5.1 -6.2 -4.3 -14.3 0.5 -5.9 1.2 -7.8 4.7 -13 4.9 -7.1 8.9 -9.4 19 -11 13.2 -2 23.9 0.7 23.9 6.1 0 2.1 -1.2 3.2 -6.7 6.4 -3.8 2.1 -8.9 5.9 -11.4 8.5 -6.5 6.6 -19.1 17.6 -21 18.3 -0.8 0.3 -2.7 -0.1 -4.2 -1 z  m 15.6 -14.7 c 5.6 -4.1 12.8 -9.3 16 -11.5 6.4 -4.7 7.4 -7.6 3 -8.6 -1.6 -0.3 -3.4 -0.8 -4.2 -1 -2.4 -0.8 -16.6 2.7 -20.6 5 -5.2 2.9 -8.5 9.4 -8.5 16.7 0 9.2 1 9.1 14.3 -0.6 z "/>
 </g>
</svg>